<svg width="70" height="40" viewBox="0 0 70 40" fill="none" xmlns="http://www.w3.org/2000/svg">
<g id="logo-frame">
<g id="logo">
<path fill-rule="evenodd" clip-rule="evenodd" d="M16.557 33.3331C14.5885 33.3331 12.8882 31.6789 12.8882 29.6243C12.8882 27.5697 14.5887 25.9556 16.557 25.9556C17.3641 25.9556 18.0817 26.1589 18.7071 26.5993V26.0356H20.4999V33.1698H18.7072V32.7263C18.1712 33.1298 17.3641 33.3331 16.557 33.3331ZM14.5887 29.6243C14.5887 30.7516 15.5743 31.6789 16.6463 31.6789C17.8137 31.6789 18.7071 30.7516 18.7071 29.6243C18.7071 28.5369 17.8137 27.5697 16.6463 27.5697C15.5743 27.5697 14.5887 28.5369 14.5887 29.6243Z" fill="#8C8D8F"/>
<path d="M40.4742 23.5128L31.8768 8.51738L38.056 4.88867L48.8036 23.5128H40.4742Z" fill="#8C8D8F"/>
<path fill-rule="evenodd" clip-rule="evenodd" d="M24.8001 33.3331C22.7393 33.3331 21.1283 31.6789 21.1283 29.6243C21.1283 27.5697 22.7393 25.9556 24.8001 25.9556C25.6041 25.9556 26.3219 26.1589 26.9503 26.5993V23.5774H28.74V33.1698H26.9502V32.7263C26.3217 33.1298 25.6042 33.3331 24.8001 33.3331ZM22.8287 29.6243C22.8287 30.7516 23.7252 31.6789 24.8895 31.6789C25.9614 31.6789 26.9503 30.7516 26.9503 29.6243C26.9503 28.5369 25.9614 27.5697 24.8895 27.5697C23.7251 27.5697 22.8287 28.5369 22.8287 29.6243Z" fill="#8C8D8F"/>
<path d="M24.7119 15.0073L30.9804 11.4618L37.8776 23.5123H31.3379V25.2866H29.548V23.5123L24.7119 15.0073Z" fill="#8C8D8F"/>
<path fill-rule="evenodd" clip-rule="evenodd" d="M54.0028 24.9416L53.8241 24.5381H53.6455V24.9416H53.5099V23.9744H53.9134C54.0028 23.9744 54.1814 24.0977 54.1814 24.2578C54.1814 24.4179 54.0921 24.4981 54.0028 24.5381L54.1814 24.9416H54.0028ZM53.8241 24.0977H53.6455V24.418H53.8241C54.0028 24.418 54.0028 24.378 54.0028 24.2578C54.0028 24.1747 54.0028 24.0977 53.8241 24.0977Z" fill="#8C8D8F"/>
<path fill-rule="evenodd" clip-rule="evenodd" d="M53.8175 25.3425C53.3678 25.3425 52.9212 24.9389 52.9212 24.4553C52.9212 23.9717 53.3678 23.5682 53.8175 23.5682C54.3535 23.5682 54.7141 23.9718 54.7141 24.4553C54.7141 24.9388 54.3535 25.3425 53.8175 25.3425ZM53.8175 23.6915C53.3678 23.6915 53.0998 24.0518 53.0998 24.4553C53.0998 24.8588 53.3678 25.2224 53.8175 25.2224C54.2642 25.2224 54.5322 24.859 54.5322 24.4553C54.5322 24.0517 54.2642 23.6915 53.8175 23.6915Z" fill="#8C8D8F"/>
<path d="M31.3552 25.929V33.1063H29.547V25.929H31.3552Z" fill="#8C8D8F"/>
<path d="M51.7534 33.3212C49.7849 33.3212 48.6176 32.3138 48.5282 30.8631H50.4103C50.4103 31.3467 50.6783 31.9904 51.8428 32.0304C52.6498 32.0304 53.0964 31.5469 53.0964 31.1834C53.0176 30.6864 52.4504 30.5965 51.8275 30.4977C51.7439 30.4845 51.6593 30.4711 51.5747 30.4565C50.7676 30.3395 50.1423 30.1762 49.6926 29.9759C49.0673 29.6525 48.7068 28.9656 48.7068 28.2418C48.7068 26.951 49.7849 25.9436 51.664 25.9436C53.4569 25.9436 54.6213 26.871 54.7074 28.2818H52.9178C52.9178 27.9212 52.8284 27.3145 51.7533 27.3145C51.0356 27.3145 50.589 27.4346 50.4996 27.9582C50.4996 28.4869 51.3044 28.6099 52.1912 28.7455C52.5239 28.7964 52.8681 28.849 53.1858 28.9255C54.2608 29.2089 54.9785 29.8927 54.9785 30.8631C54.9785 32.6374 53.5461 33.3212 51.7534 33.3212Z" fill="#8C8D8F"/>
<path d="M17.4563 21.4171L23.6357 17.8283L26.9501 23.5149H18.6207L17.4563 21.4171Z" fill="#8C8D8F"/>
<path fill-rule="evenodd" clip-rule="evenodd" d="M43.9577 33.3327C41.8999 33.3327 40.2888 31.6785 40.2888 29.6239C40.2888 27.5693 41.8999 25.9552 43.9575 25.9552C44.7647 25.9552 45.4824 26.1585 46.1077 26.5989V26.0352H47.8111V33.1694H46.1078V32.7259C45.4824 33.1294 44.7648 33.3327 43.9577 33.3327ZM41.9892 29.6239C41.9892 30.7513 42.8857 31.6785 44.05 31.6785C45.125 31.6785 46.1077 30.7513 46.1077 29.6239C46.1077 28.5365 45.125 27.5693 44.05 27.5693C42.8856 27.5693 41.9892 28.5365 41.9892 29.6239Z" fill="#8C8D8F"/>
<path fill-rule="evenodd" clip-rule="evenodd" d="M37.8768 23.577H39.6666V33.1694H37.8768V32.7259C37.3378 33.1294 36.6201 33.3327 35.816 33.3327C33.7554 33.3327 32.0549 31.6785 32.0549 29.6239C32.0549 27.5693 33.7554 25.9552 35.816 25.9552C36.62 25.9552 37.3378 26.1585 37.8768 26.5989V23.577ZM33.7554 29.6239C33.7554 30.7513 34.741 31.6785 35.816 31.6785C36.9806 31.6785 37.8768 30.7513 37.8768 29.6239C37.8768 28.5365 36.9804 27.5693 35.816 27.5693C34.741 27.5693 33.7554 28.5365 33.7554 29.6239Z" fill="#8C8D8F"/>
</g>
</g>
</svg>
