<svg width="70" height="40" viewBox="0 0 70 40" fill="none" xmlns="http://www.w3.org/2000/svg">
<g id="logo-frame">
<g id="logo">
<path d="M65.7304 17.269C67.9686 17.269 69.4147 19.0421 69.0554 21.1957H63.915C64.0282 22.1307 64.8078 22.7139 65.6807 22.7127C66.4753 22.7127 67.1306 22.3521 67.4849 21.6209L68.9049 22.3322C68.5998 22.9066 68.1421 23.3857 67.5823 23.7167C67.0224 24.0478 66.382 24.2179 65.7317 24.2085C63.6564 24.1973 62.214 22.653 62.214 20.7356C62.214 18.8183 63.6676 17.2739 65.7317 17.2628L65.7304 17.269ZM67.4451 20.0169C67.2735 19.297 66.4964 18.7735 65.7043 18.7735C64.9123 18.7735 64.16 19.2796 63.9635 20.0169H67.4451Z" fill="#8C8D8F"/>
<path d="M60.422 17.4568L58.8056 22.1743L57.204 17.4568H55.3886L57.7897 24.0257H59.8326L62.2337 17.4568H60.422Z" fill="#8C8D8F"/>
<path d="M52.8001 24.0258H54.5074V17.4568H52.8001V24.0258Z" fill="#8C8D8F"/>
<path d="M52.8001 14.9131H54.5074V16.6216H52.8001V14.9131Z" fill="#8C8D8F"/>
<path d="M49.2116 18.169L49.1618 17.4565H47.5789V24.0242H49.2862V21.1718C49.2862 19.5554 50.5122 18.8678 51.8676 19.1649V17.4092C51.0419 17.2041 49.8308 17.3309 49.2116 18.169Z" fill="#8C8D8F"/>
<path d="M42.1458 22.402H40.8327V17.2903H42.1458C43.6504 17.2903 44.7135 18.341 44.7135 19.8467C44.7135 21.3525 43.6504 22.4032 42.1458 22.4032V22.402ZM42.1458 15.6664H39.1243V24.0271H42.1458C44.583 24.0271 46.422 22.2353 46.422 19.8467C46.422 17.4581 44.583 15.6664 42.1458 15.6664Z" fill="#8C8D8F"/>
<path d="M33.2017 18.1347L33.152 17.4558H31.5691V24.0248H33.2763V20.6464C33.2763 18.632 36.0604 18.4779 36.0604 20.2025V24.0248H37.7688V20.0458C37.7688 17.1026 34.5222 16.742 33.2029 18.1309L33.2017 18.1347Z" fill="#8C8D8F"/>
<path d="M28.5405 24.0257H30.2539V17.4568H28.5405V24.0257Z" fill="#8C8D8F"/>
<path d="M28.5405 14.9132H30.2539V16.6216H28.5405V14.9132Z" fill="#8C8D8F"/>
<path fill-rule="evenodd" clip-rule="evenodd" d="M3.69336 14.9265C3.33276 15.966 3.33276 17.2604 3.33276 19.8454C3.33276 22.4318 3.33276 23.7249 3.69833 24.7644C4.02204 25.6979 4.55319 26.5459 5.25186 27.2446C5.95052 27.9432 6.79851 28.4744 7.73204 28.7981C8.77155 29.1586 10.0647 29.1586 12.651 29.1586C15.2374 29.1586 16.5294 29.1586 17.5701 28.7981C18.5027 28.4737 19.3497 27.9423 20.0475 27.2437C20.7453 26.545 21.2757 25.6974 21.5988 24.7644C21.9594 23.7249 21.9594 22.4318 21.9594 19.8455C21.9594 17.2592 21.9594 15.9672 21.5988 14.9265C21.2751 13.993 20.744 13.145 20.0453 12.4463C19.3467 11.7477 18.4987 11.2165 17.5651 10.8928C16.5256 10.5322 15.2312 10.5322 12.6461 10.5322C10.061 10.5322 8.76782 10.5322 7.72707 10.8928C6.79367 11.2168 5.94581 11.748 5.24718 12.4466C4.54854 13.1452 4.0173 13.9931 3.69336 14.9265ZM9.13977 14.9471H9.14847L10.0027 14.9521C10.1044 14.9496 10.2061 14.9534 10.3074 14.9632C10.3982 14.9688 10.4839 15.0074 10.5482 15.0718C10.6126 15.1362 10.6512 15.2218 10.6568 15.3126C10.6666 15.4139 10.6704 15.5156 10.6679 15.6173V16.4168C10.6704 16.5185 10.6666 16.6202 10.6568 16.7214C10.6512 16.8123 10.6126 16.8979 10.5482 16.9623C10.4839 17.0266 10.3982 17.0653 10.3074 17.0708C10.2061 17.0807 10.1044 17.0845 10.0027 17.082H9.13977C9.03808 17.0845 8.93635 17.0807 8.83512 17.0708C8.74429 17.0653 8.65863 17.0266 8.59427 16.9623C8.52992 16.8979 8.49131 16.8123 8.48572 16.7214C8.47584 16.6202 8.47211 16.5185 8.47453 16.4168V15.6123C8.4721 15.5106 8.47583 15.4089 8.48572 15.3077C8.49131 15.2168 8.52992 15.1312 8.59427 15.0668C8.65863 15.0025 8.74429 14.9639 8.83512 14.9583C8.93635 14.9484 9.03808 14.9447 9.13977 14.9471ZM9.13977 18.6189H10.0027C10.1044 18.6165 10.2061 18.6202 10.3074 18.6301C10.3982 18.6357 10.4839 18.6743 10.5482 18.7386C10.6126 18.803 10.6512 18.8887 10.6568 18.9795C10.6666 19.0807 10.6704 19.1825 10.6679 19.2841V24.0526C10.6704 24.1543 10.6666 24.2561 10.6568 24.3573C10.6512 24.4481 10.6126 24.5338 10.5482 24.5981C10.4839 24.6625 10.3982 24.7011 10.3074 24.7067C10.2061 24.7166 10.1044 24.7203 10.0027 24.7179H9.13977C9.03808 24.7203 8.93635 24.7166 8.83512 24.7067C8.74429 24.7011 8.65863 24.6625 8.59427 24.5981C8.52992 24.5338 8.49131 24.4481 8.48572 24.3573C8.47584 24.2561 8.47211 24.1543 8.47453 24.0526V19.2841C8.4721 19.1825 8.47583 19.0807 8.48572 18.9795C8.49131 18.8887 8.52992 18.803 8.59427 18.7386C8.65863 18.6743 8.74429 18.6357 8.83512 18.6301C8.93635 18.6202 9.03808 18.6165 9.13977 18.6189ZM13.8797 14.9471H12.9298V14.9521C12.8281 14.9496 12.7263 14.9534 12.6251 14.9632C12.5343 14.9688 12.4486 15.0074 12.3843 15.0718C12.3199 15.1362 12.2813 15.2218 12.2757 15.3126C12.2658 15.4139 12.2621 15.5156 12.2645 15.6173V16.3982C12.2621 16.4998 12.2658 16.6016 12.2757 16.7028C12.2813 16.7936 12.3199 16.8793 12.3843 16.9436C12.4486 17.008 12.5343 17.0466 12.6251 17.0522C12.7263 17.0621 12.8281 17.0658 12.9298 17.0634H13.8797C14.6145 17.0634 15.3192 17.3553 15.8387 17.8748C16.3582 18.3943 16.6501 19.099 16.6501 19.8337C16.6501 20.5685 16.3582 21.2731 15.8387 21.7926C15.3192 22.3122 14.6145 22.6041 13.8797 22.6041H12.9298C12.8281 22.6017 12.7263 22.6054 12.6251 22.6153C12.5343 22.6208 12.4486 22.6595 12.3843 22.7238C12.3199 22.7882 12.2813 22.8738 12.2757 22.9647C12.2658 23.0659 12.2621 23.1676 12.2645 23.2693V24.0539C12.2621 24.1556 12.2658 24.2573 12.2757 24.3585C12.2813 24.4494 12.3199 24.535 12.3843 24.5994C12.4486 24.6637 12.5343 24.7023 12.6251 24.7079C12.7263 24.7178 12.8281 24.7215 12.9298 24.7191H13.8797C16.6999 24.7191 18.8299 22.6376 18.8299 19.8325C18.8299 17.0273 16.6961 14.9471 13.8797 14.9471Z" fill="#8C8D8F"/>
</g>
</g>
</svg>
