<svg width="72" height="40" viewBox="0 0 72 40" fill="none" xmlns="http://www.w3.org/2000/svg">
<g id="logo-frame">
<g id="logo">
<path d="M29.2557 26.5028V13.4974H31.6428V26.5028H29.2557Z" fill="#8C8D8F"/>
<path d="M52.1566 17.6658H54.4359V18.744C54.9207 17.8824 56.0523 17.4145 57.0209 17.4145C58.2238 17.4145 59.1933 17.9358 59.6461 18.8875C60.3456 17.8092 61.2804 17.4145 62.4477 17.4145C64.081 17.4145 65.643 18.4027 65.643 20.773V26.5036H63.3243V21.2586C63.3243 20.306 62.8555 19.5878 61.7623 19.5878C60.7384 19.5878 60.1281 20.3782 60.1281 21.3308V26.5045H57.7588V21.2586C57.7588 20.306 57.274 19.5878 56.1967 19.5878C55.1551 19.5878 54.5447 20.3604 54.5447 21.3308V26.5045H52.1566V17.6658Z" fill="#8C8D8F"/>
<path d="M37.0387 26.7586C34.3487 26.7586 32.4013 24.7634 32.4013 22.0837C32.4013 19.4472 34.3431 17.4042 37.0387 17.4042C39.7342 17.4042 41.676 19.4669 41.676 22.0837C41.6769 24.7446 39.7277 26.7586 37.0387 26.7586ZM37.0387 19.5672C36.5409 19.567 36.0543 19.7145 35.6403 19.9909C35.2263 20.2673 34.9037 20.6602 34.713 21.1201C34.5224 21.5799 34.4725 22.0859 34.5695 22.5741C34.6664 23.0623 34.906 23.5108 35.2579 23.8628C35.6099 24.2149 36.0582 24.4546 36.5464 24.5518C37.0346 24.649 37.5406 24.5992 38.0005 24.4088C38.4604 24.2183 38.8535 23.8958 39.1301 23.4819C39.4066 23.0681 39.5542 22.5815 39.5542 22.0837C39.5532 21.4169 39.2879 20.7776 38.8163 20.3061C38.3448 19.8345 37.7055 19.5692 37.0387 19.5682V19.5672Z" fill="#8C8D8F"/>
<path d="M46.7772 26.7591C44.0872 26.7591 42.1398 24.7639 42.1398 22.0843C42.1398 19.4478 44.0816 17.4047 46.7772 17.4047C49.4727 17.4047 51.4145 19.4674 51.4145 22.0843C51.4145 24.7452 49.4662 26.7591 46.7772 26.7591ZM46.7772 19.5396C46.2737 19.5395 45.7814 19.6886 45.3627 19.9682C44.9439 20.2478 44.6175 20.6453 44.4247 21.1104C44.2319 21.5755 44.1813 22.0874 44.2794 22.5813C44.3776 23.0751 44.6199 23.5288 44.9759 23.8849C45.3319 24.241 45.7854 24.4835 46.2793 24.5818C46.7731 24.6801 47.285 24.6297 47.7502 24.4371C48.2154 24.2445 48.613 23.9182 48.8927 23.4996C49.1725 23.0809 49.3218 22.5887 49.3218 22.0852C49.3213 21.4103 49.0531 20.7632 48.5761 20.2858C48.099 19.8084 47.4521 19.5397 46.7772 19.5387V19.5396Z" fill="#8C8D8F"/>
<path d="M24.4428 19.0124H19.2448L23.7452 16.4134L22.757 14.7004L18.2565 17.2995L20.8555 12.799L19.1426 11.8098L16.5435 16.3103V11.1113H14.5652V16.3103L11.9653 11.8098L10.2532 12.799L12.8522 17.2995L8.35177 14.7004L7.36167 16.4125L11.8621 19.0115H6.66504V20.9889H11.8631L7.36261 23.5879L8.35177 25.3009L12.8522 22.7019L10.2532 27.2023L11.9625 28.1934L14.5615 23.6929V28.8919H16.5389V23.691L19.1379 28.1915L20.8509 27.2023L18.2518 22.7019L22.7523 25.3009L23.7415 23.5879L19.241 20.9889H24.4419V19.0124H24.4428ZM15.5534 22.6906C15.0196 22.6906 14.4977 22.5323 14.0538 22.2357C13.6099 21.9391 13.2639 21.5175 13.0596 21.0243C12.8553 20.531 12.8018 19.9883 12.906 19.4647C13.0101 18.9411 13.2672 18.4601 13.6447 18.0826C14.0222 17.7051 14.5032 17.448 15.0268 17.3438C15.5505 17.2397 16.0932 17.2931 16.5864 17.4974C17.0797 17.7017 17.5013 18.0477 17.7979 18.4916C18.0945 18.9355 18.2528 19.4574 18.2528 19.9913C18.2528 20.707 17.9685 21.3935 17.4625 21.8997C16.9565 22.4059 16.2701 22.6904 15.5544 22.6906H15.5534Z" fill="#8C8D8F"/>
</g>
</g>
</svg>
