<svg width="72" height="40" viewBox="0 0 72 40" fill="none" xmlns="http://www.w3.org/2000/svg">
<g id="logo-frame">
<path id="Vector" d="M66.1213 14.1405V18.8237C66.0987 19.0665 66.1482 19.3105 66.2637 19.5252C66.4084 19.6834 66.6087 19.7798 66.8227 19.7941C66.8758 19.7988 66.9277 19.8131 66.9757 19.8363C66.9878 19.8686 66.9878 19.9042 66.9757 19.9365C66.9757 20.0209 66.944 20.0631 66.8754 20.0631H66.6961C66.3618 20.0239 66.0254 20.0063 65.6888 20.0104C65.3749 20.002 65.0609 20.0197 64.75 20.0631H64.634C64.5601 20.0631 64.5285 20.0209 64.5285 19.9365C64.5285 19.8522 64.5707 19.8522 64.6551 19.8205C64.7826 19.7649 64.8888 19.6698 64.9582 19.5492C65.0275 19.4286 65.0562 19.2889 65.0401 19.1507V14.5993C65.0599 14.2961 65.0223 13.9919 64.9293 13.7027C64.8955 13.6249 64.8381 13.5597 64.7652 13.5162C64.6924 13.4727 64.6078 13.4531 64.5232 13.4601C64.423 13.4601 64.3755 13.4126 64.3755 13.323C64.374 13.3017 64.3787 13.2804 64.389 13.2617C64.3993 13.243 64.4147 13.2276 64.4336 13.2175C64.5327 13.1801 64.6351 13.1518 64.7395 13.1331C65.1091 13.0665 65.4654 12.94 65.7943 12.7587L65.9683 12.6585C66.0123 12.626 66.0668 12.611 66.1213 12.6163C66.174 12.6163 66.1951 12.6479 66.1951 12.7165C66.1951 12.785 66.1951 12.8009 66.1951 12.8853V12.9696C66.1213 13.4337 66.1213 13.824 66.1213 14.1405ZM2.76936 13.381L4.87898 17.9588C4.96864 18.1592 5.04775 18.2594 5.10576 18.2541C5.16378 18.2489 5.23235 18.1803 5.29564 18.0432L7.22066 13.94C7.32895 13.6864 7.45955 13.4428 7.61094 13.2122C7.64668 13.1653 7.69303 13.1274 7.74619 13.1017C7.79935 13.0761 7.85782 13.0633 7.91684 13.0646H8.14362C8.2455 13.0705 8.34763 13.0705 8.44951 13.0646C8.62587 13.0622 8.80195 13.0499 8.97692 13.0276H9.21425C9.33556 13.0276 9.39357 13.0751 9.39357 13.17C9.39357 13.265 9.3461 13.2914 9.25644 13.2966C9.12745 13.2944 8.99973 13.3223 8.88344 13.3781C8.76714 13.434 8.66551 13.5162 8.58664 13.6183C8.43594 13.9165 8.37025 14.2504 8.39677 14.5835V14.9316L8.51808 18.0959V18.3016C8.4889 18.6704 8.57556 19.0392 8.76596 19.3564C8.865 19.4772 8.98869 19.5754 9.12876 19.6445C9.26883 19.7137 9.42205 19.7521 9.57817 19.7572C9.59779 19.7572 9.6172 19.7612 9.63521 19.769C9.65321 19.7768 9.6694 19.7882 9.68277 19.8026C9.69614 19.8169 9.7064 19.8339 9.7129 19.8524C9.7194 19.8709 9.72201 19.8906 9.72056 19.9102C9.72056 20.0051 9.60453 20.0526 9.37247 20.0526C9.30391 20.0526 9.19315 20.0526 9.04548 20.0262C8.62883 19.9787 8.33349 19.9576 8.15944 19.9576C7.85973 19.9549 7.56017 19.9725 7.26285 20.0104C7.11102 20.0356 6.95779 20.0515 6.80401 20.0578C6.78649 20.0596 6.76878 20.0574 6.75225 20.0513C6.73572 20.0452 6.7208 20.0355 6.7086 20.0228C6.6964 20.0101 6.68725 19.9947 6.68185 19.978C6.67645 19.9612 6.67495 19.9434 6.67744 19.926C6.67744 19.8627 6.7249 19.8152 6.82511 19.7836C6.98882 19.7496 7.13484 19.6579 7.23649 19.5252C7.32695 19.3648 7.36907 19.1816 7.35778 18.9978C7.35778 18.887 7.35778 18.8026 7.35778 18.7604L7.20484 15.3746C7.20484 15.2796 7.20484 15.2374 7.13628 15.2374C7.06771 15.2374 7.01498 15.3271 6.92532 15.517L5.00028 19.5937L4.92645 19.7467C4.82624 19.9576 4.74714 20.0631 4.68385 20.0684C4.62056 20.0737 4.48342 19.8838 4.30938 19.5093L4.05095 18.982L2.41073 15.3324L2.37381 15.2585C2.36367 15.2522 2.35212 15.2484 2.34017 15.2474C2.32823 15.2465 2.31624 15.2485 2.30524 15.2533C2.2525 15.2533 2.22086 15.3218 2.22086 15.4642V15.6277L2.15757 18.2067V18.4124L2.20504 18.8923C2.22627 19.1103 2.31486 19.3163 2.45852 19.4817C2.60218 19.6471 2.79376 19.7637 3.00669 19.8152C3.15963 19.8521 3.23348 19.9102 3.23348 19.9893C3.23348 20.0684 3.17547 20.1211 3.05417 20.1211C2.94527 20.1278 2.83606 20.1278 2.72716 20.1211L2.36325 20.0684C2.22978 20.0597 2.0959 20.0597 1.96243 20.0684C1.7189 20.0625 1.47532 20.0784 1.23461 20.1159C1.15127 20.1335 1.06658 20.1441 0.981453 20.1475C0.875972 20.1475 0.823238 20.1053 0.823238 20.0104C0.823238 19.9154 0.865436 19.9049 0.944547 19.8733C1.19145 19.7974 1.39818 19.6267 1.51942 19.3986C1.65362 19.1046 1.71512 18.7826 1.69873 18.4598L1.83585 15.1056V14.7628C1.85526 14.417 1.74844 14.0759 1.53524 13.8029C1.43192 13.6882 1.30468 13.5976 1.16252 13.5375C1.02036 13.4773 0.866743 13.4491 0.712487 13.4548C0.58591 13.4548 0.517334 13.4074 0.517334 13.3072C0.517334 13.207 0.591178 13.1595 0.738851 13.1595H1.36119C1.51815 13.1587 1.67493 13.1481 1.83058 13.1279C2.06264 13.1032 2.21382 13.0909 2.28414 13.0909C2.38447 13.0829 2.48485 13.1059 2.57165 13.1568C2.65845 13.2078 2.72748 13.2842 2.76936 13.3757V13.381ZM44.5768 23.9817C44.4326 23.9233 44.2787 23.8929 44.1232 23.892C44.001 23.8889 43.8795 23.9118 43.7668 23.959C43.6541 24.0063 43.5526 24.0769 43.4692 24.1662C43.3823 24.2565 43.3142 24.3631 43.269 24.4799C43.2237 24.5967 43.2021 24.7214 43.2055 24.8466C43.1951 25.052 43.2629 25.2536 43.3954 25.4109C43.6055 25.6037 43.8508 25.7541 44.1179 25.8539L44.4924 26.0227C44.6267 26.0739 44.7476 26.155 44.8457 26.26C44.918 26.3493 44.9555 26.4617 44.9512 26.5765C44.9514 26.6591 44.9341 26.7408 44.9005 26.8162C44.8669 26.8916 44.8176 26.9591 44.7561 27.0142C44.6986 27.0737 44.6298 27.1212 44.5537 27.1538C44.4776 27.1864 44.3958 27.2035 44.3131 27.2041C44.0778 27.1943 43.856 27.092 43.696 26.9193C43.496 26.7255 43.352 26.4814 43.2793 26.2125C43.2793 26.1756 43.2794 26.1545 43.2319 26.1545C43.1844 26.1545 43.1528 26.1915 43.1528 26.2706C43.1699 26.4158 43.2017 26.5589 43.2477 26.6978C43.2818 26.8062 43.3065 26.9173 43.3215 27.03C43.3155 27.0529 43.3154 27.0769 43.3214 27.0998C43.3274 27.1227 43.3391 27.1436 43.3556 27.1606C43.372 27.1776 43.3926 27.19 43.4153 27.1967C43.438 27.2034 43.462 27.2041 43.485 27.1988C43.5707 27.2189 43.6552 27.2435 43.7382 27.2726C43.908 27.3348 44.0854 27.3739 44.2656 27.3886C44.4023 27.3895 44.5376 27.3618 44.6629 27.3073C44.7883 27.2528 44.9008 27.1727 44.9934 27.0722C45.0921 26.9741 45.1704 26.8574 45.2238 26.7289C45.2773 26.6003 45.3047 26.4625 45.3046 26.3233C45.3097 26.082 45.2294 25.8466 45.0778 25.6588C44.8582 25.4458 44.5931 25.2853 44.3025 25.1894C44.0955 25.1189 43.8986 25.0214 43.7171 24.8993C43.6709 24.8594 43.6338 24.81 43.6084 24.7545C43.5829 24.699 43.5696 24.6387 43.5694 24.5776C43.5687 24.5103 43.583 24.4436 43.6113 24.3825C43.6396 24.3214 43.6811 24.2673 43.7329 24.2243C43.8366 24.1254 43.9746 24.0706 44.1179 24.0713C44.3454 24.0757 44.5633 24.164 44.7297 24.3192C44.9122 24.4702 45.0385 24.6783 45.0883 24.9099C45.0883 24.9732 45.1253 24.9995 45.1516 24.9995C45.178 24.9995 45.2149 24.9626 45.2149 24.8941C45.2158 24.8818 45.2158 24.8694 45.2149 24.8571V24.6356L45.1833 24.3983C45.1818 24.3684 45.1818 24.3385 45.1833 24.3087V24.1082C45.1833 24.0555 45.1833 24.0291 45.1305 24.0291H45.0936L44.9987 24.0766C44.9744 24.0822 44.9491 24.0822 44.9248 24.0766C44.8702 24.0709 44.8169 24.0566 44.7666 24.0344L44.5768 23.9817ZM32.4834 25.7643L32.1616 25.0154C32.0878 24.8361 32.0298 24.7464 31.9981 24.7464C31.9665 24.7464 31.9401 24.8044 31.8927 24.9204L31.8452 25.0259L31.5604 25.6799L31.534 25.7432C31.5295 25.764 31.5295 25.7856 31.534 25.8065C31.534 25.8592 31.5921 25.8908 31.7134 25.8908H32.4359C32.4992 25.8908 32.5308 25.8908 32.5308 25.8381C32.5332 25.8241 32.5332 25.8099 32.5308 25.7959L32.4834 25.7643ZM32.3937 24.2295L33.5118 26.798C33.5553 26.9089 33.6239 27.0081 33.7122 27.088C33.7978 27.1556 33.8997 27.1992 34.0076 27.2146C34.0392 27.2146 34.0498 27.2463 34.0498 27.2884C34.0498 27.3306 34.0498 27.357 33.9917 27.357H33.8968C33.6947 27.3232 33.4898 27.309 33.285 27.3148C33.0909 27.3079 32.8966 27.3202 32.7049 27.3517H32.6416C32.6324 27.3525 32.6231 27.3513 32.6144 27.3482C32.6057 27.345 32.5979 27.34 32.5913 27.3334C32.5848 27.3269 32.5798 27.319 32.5766 27.3103C32.5734 27.3016 32.5722 27.2924 32.573 27.2832C32.573 27.2832 32.573 27.241 32.6258 27.2304C32.7012 27.2099 32.7691 27.1677 32.8209 27.1091C32.8684 27.059 32.8965 26.9935 32.9 26.9245C32.8615 26.7127 32.7904 26.5081 32.689 26.318C32.6469 26.2231 32.5994 26.1651 32.5466 26.1545C32.3588 26.1414 32.1702 26.1414 31.9823 26.1545H31.6501L31.4286 26.1967C31.3653 26.2231 31.2967 26.3286 31.2229 26.5184L31.149 26.7083C31.1258 26.7597 31.1132 26.8154 31.1121 26.8718C31.1121 27.0775 31.2545 27.1988 31.5446 27.2304C31.6079 27.2304 31.6395 27.2621 31.6342 27.3043C31.629 27.3465 31.6026 27.3675 31.5446 27.3675H31.418C31.3225 27.3481 31.2254 27.3375 31.1279 27.3359C31.0488 27.3359 30.9275 27.3359 30.7535 27.3359H30.5109C30.4634 27.3359 30.4423 27.3359 30.4423 27.2779C30.4423 27.2199 30.4423 27.2199 30.5109 27.2041C30.5973 27.1773 30.6731 27.1237 30.7271 27.0511C30.8191 26.9015 30.8985 26.7445 30.9644 26.5817L31.6342 25.0364L31.7503 24.7833L31.9771 24.3139L32.0931 24.0819C32.1458 23.9553 32.1827 23.892 32.1986 23.892C32.2144 23.892 32.2724 23.9606 32.3304 24.0977L32.3937 24.2295ZM27.9477 26.3708C27.936 26.5785 27.9574 26.7868 28.011 26.9878C28.0418 27.0518 28.0907 27.1054 28.1516 27.142C28.2125 27.1785 28.2828 27.1964 28.3538 27.1935H28.4593C28.469 27.1926 28.4788 27.1938 28.4879 27.1973C28.497 27.2008 28.5052 27.2063 28.5119 27.2134C28.5185 27.2206 28.5234 27.2292 28.5262 27.2385C28.5289 27.2479 28.5295 27.2577 28.5278 27.2673C28.5278 27.3148 28.4962 27.3359 28.4329 27.3359H27.7262C27.5656 27.3396 27.4054 27.3519 27.2462 27.3728H27.0933C27.0405 27.3728 27.0142 27.3728 27.0089 27.3148C27.0082 27.3058 27.0092 27.2967 27.012 27.2881C27.0148 27.2795 27.0193 27.2716 27.0252 27.2647C27.0311 27.2579 27.0383 27.2522 27.0463 27.2482C27.0544 27.2441 27.0632 27.2416 27.0722 27.241C27.1255 27.2331 27.1762 27.2127 27.2202 27.1816C27.2642 27.1504 27.3002 27.1094 27.3253 27.0617C27.378 26.902 27.3995 26.7337 27.3886 26.5659V24.6725C27.3995 24.5268 27.3604 24.3817 27.2779 24.2612C27.1818 24.1631 27.0512 24.1063 26.914 24.103C26.8542 24.103 26.8243 24.0766 26.8243 24.0239C26.8243 23.9764 26.8612 23.95 26.9298 23.95H27.0458C27.2251 23.95 27.4343 23.95 27.6734 23.95H28.4804C28.8446 23.9181 29.2077 24.0234 29.4982 24.2454C29.5888 24.325 29.6611 24.4232 29.7103 24.5334C29.7594 24.6435 29.7843 24.7629 29.7831 24.8835C29.785 25.0127 29.7591 25.1407 29.7072 25.259C29.6554 25.3773 29.5787 25.483 29.4824 25.5691C29.2831 25.7531 29.0206 25.8532 28.7493 25.8486C28.6107 25.8509 28.4724 25.835 28.338 25.8012C28.2166 25.7695 28.1586 25.7273 28.1586 25.6852C28.1586 25.643 28.1586 25.6219 28.2219 25.6219H28.2588C28.3444 25.6474 28.4333 25.6598 28.5225 25.6588C28.613 25.6628 28.7033 25.648 28.7877 25.6153C28.8722 25.5827 28.9489 25.5328 29.013 25.4689C29.0762 25.4042 29.1255 25.3274 29.1581 25.2431C29.1908 25.1588 29.206 25.0688 29.2029 24.9784C29.2107 24.7552 29.1312 24.5376 28.9814 24.3719C28.9085 24.2949 28.82 24.2343 28.7217 24.1943C28.6235 24.1542 28.5178 24.1357 28.4118 24.1399C28.2868 24.1267 28.161 24.1545 28.0532 24.219C27.982 24.2964 27.9441 24.3987 27.9477 24.5038V26.3708ZM36.3862 25.2949V24.4458C36.3771 24.3566 36.3995 24.2671 36.4494 24.1926C36.4806 24.1664 36.5168 24.1468 36.5558 24.1351C36.5948 24.1233 36.6358 24.1195 36.6762 24.1241C36.7901 24.1207 36.9035 24.1405 37.0096 24.1822C37.1156 24.2239 37.2122 24.2867 37.2933 24.3667C37.3732 24.4468 37.4358 24.5424 37.4776 24.6476C37.5193 24.7528 37.5391 24.8653 37.5359 24.9784C37.5407 25.0617 37.5271 25.1451 37.4961 25.2225C37.4651 25.3 37.4175 25.3697 37.3566 25.4267C37.3026 25.4784 37.2348 25.5132 37.1614 25.5269C36.9858 25.5364 36.8097 25.5364 36.634 25.5269C36.5661 25.5364 36.4969 25.5215 36.4389 25.4847C36.4016 25.4212 36.3885 25.3463 36.402 25.2738L36.3862 25.2949ZM36.4705 26.9931C36.3997 26.7901 36.371 26.5747 36.3862 26.3602V25.8645C36.3862 25.8012 36.3862 25.759 36.4231 25.7484H36.6868C36.7857 25.7403 36.8844 25.7663 36.9663 25.8223C37.0601 25.9224 37.1351 26.0385 37.1878 26.1651C37.3286 26.4964 37.5055 26.8112 37.7152 27.1038C37.7701 27.1775 37.8407 27.238 37.9219 27.2808C38.0031 27.3237 38.0929 27.3479 38.1846 27.3517C38.3091 27.3469 38.4312 27.3164 38.5432 27.2621C38.6804 27.1988 38.7489 27.146 38.7489 27.0986C38.7489 27.0511 38.7489 27.0406 38.7015 27.0406H38.5907C38.503 27.0421 38.4181 27.01 38.3534 26.9509C38.2599 26.8583 38.1815 26.7515 38.1213 26.6345L37.8682 26.1862L37.6414 25.8012L37.5781 25.6852C37.574 25.666 37.574 25.6463 37.5781 25.6271C37.5781 25.6271 37.5781 25.5902 37.6256 25.5797C37.7767 25.5176 37.9067 25.4132 38 25.2791C38.0899 25.1488 38.1377 24.9943 38.1371 24.8361C38.1392 24.7125 38.1127 24.5901 38.0596 24.4785C38.0065 24.3669 37.9284 24.269 37.8312 24.1926C37.6111 24.0189 37.3363 23.9292 37.056 23.9395C36.9505 23.9395 36.7606 23.9395 36.4811 23.9711C36.2016 24.0028 36.0434 23.9975 35.8799 23.9975C35.7411 24.0047 35.602 24.0047 35.4632 23.9975H35.3736C35.3314 23.9975 35.305 23.9975 35.305 24.0713C35.305 24.1452 35.3366 24.1452 35.4052 24.1557C35.4813 24.1578 35.5561 24.1762 35.6243 24.2099C35.6926 24.2436 35.7528 24.2917 35.8007 24.3508C35.8623 24.473 35.8879 24.6102 35.8746 24.7464V26.856C35.8809 26.9483 35.8588 27.0403 35.8113 27.1197C35.7501 27.1884 35.6689 27.2363 35.5792 27.2568C35.5644 27.2605 35.5513 27.2695 35.5426 27.2821C35.5339 27.2948 35.53 27.3101 35.5318 27.3254C35.5318 27.3676 35.5634 27.3939 35.6214 27.3939H36.3809C36.5127 27.3939 36.6499 27.3939 36.787 27.3939H36.8872C36.9452 27.3939 36.9716 27.3939 36.9716 27.3254C36.9716 27.2568 36.9347 27.2515 36.8661 27.241C36.7849 27.2444 36.7046 27.2223 36.6365 27.1778C36.5685 27.1334 36.516 27.0688 36.4864 26.9931H36.4705ZM41.117 26.5554V26.8032C41.1291 26.9136 41.1794 27.0162 41.2594 27.0933C41.3436 27.1631 41.4508 27.1988 41.56 27.1935C41.6444 27.1935 41.6813 27.1935 41.6813 27.2673C41.6813 27.3412 41.6286 27.3412 41.5231 27.3412H41.3279C41.153 27.3189 40.9769 27.3066 40.8005 27.3043C40.6707 27.2931 40.5401 27.2931 40.4103 27.3043H40.2309C40.2152 27.3047 40.1998 27.2997 40.1873 27.2901C40.1748 27.2805 40.166 27.2668 40.1624 27.2515L40.2362 27.1935C40.3299 27.1698 40.4132 27.1161 40.4735 27.0406C40.5204 26.9458 40.5405 26.84 40.5316 26.7347V24.5618C40.5404 24.4488 40.5127 24.336 40.4524 24.2401C40.3741 24.1644 40.2711 24.1195 40.1624 24.1135C40.1082 24.1086 40.0549 24.0962 40.0042 24.0766C39.9922 24.0712 39.9822 24.0622 39.9756 24.0508C39.969 24.0395 39.9661 24.0264 39.9672 24.0133C39.9672 23.9658 39.9672 23.9448 40.0252 23.9448H40.1571C40.2571 23.9543 40.3577 23.9543 40.4577 23.9448C40.5474 23.9448 40.6634 23.9448 40.8005 23.9448H41.3701C41.4229 23.9448 41.4545 23.9447 41.4545 24.008C41.4606 24.0269 41.4606 24.0472 41.4545 24.066C41.434 24.0729 41.4118 24.0729 41.3912 24.066C41.3058 24.07 41.2249 24.1057 41.1644 24.1662C41.1216 24.2528 41.1034 24.3495 41.1117 24.4458V26.5554H41.117ZM11.519 18.2225C11.6306 18.1167 11.7624 18.0347 11.9065 17.9812C12.0506 17.9277 12.204 17.9039 12.3576 17.9113C12.3921 17.9022 12.4285 17.9022 12.4631 17.9113L12.4947 18.0221V18.5495C12.5015 18.7723 12.4838 18.9951 12.442 19.214C12.4307 19.271 12.4081 19.3251 12.3755 19.3731C12.3428 19.4211 12.3009 19.4621 12.2521 19.4935C12.0767 19.6024 11.8731 19.6574 11.6667 19.6517C11.3081 19.6517 11.1393 19.425 11.1393 18.9767C11.146 18.8291 11.1855 18.6849 11.2548 18.5545C11.3241 18.4241 11.4216 18.3107 11.5401 18.2225H11.519ZM12.5158 17.2099C12.5125 17.3453 12.493 17.4799 12.4578 17.6107C11.8757 17.6937 11.3055 17.846 10.7595 18.0643C10.5382 18.1693 10.3529 18.3376 10.2271 18.5478C10.1013 18.7581 10.0407 19.0009 10.0528 19.2457C10.0458 19.3723 10.0641 19.4991 10.1067 19.6187C10.1492 19.7382 10.2152 19.8481 10.3007 19.9418C10.3906 20.0286 10.4974 20.0958 10.6145 20.1394C10.7315 20.183 10.8563 20.2019 10.9811 20.195C11.5538 20.1404 12.1008 19.9307 12.5633 19.5885C12.7672 19.9787 13.0204 20.1739 13.3227 20.1739C13.4627 20.1751 13.6007 20.1406 13.7236 20.0737L13.8976 19.9735L14.098 19.868C14.2299 19.7889 14.2984 19.7098 14.2984 19.6254C14.3003 19.6153 14.2997 19.6048 14.2967 19.595C14.2936 19.5852 14.2883 19.5763 14.281 19.569C14.2737 19.5617 14.2648 19.5563 14.2549 19.5533C14.2451 19.5502 14.2347 19.5496 14.2246 19.5515C14.1841 19.5571 14.1449 19.5696 14.1086 19.5885C14.0382 19.6165 13.9627 19.6291 13.8871 19.6254C13.6058 19.6254 13.4651 19.4496 13.4651 19.098C13.4651 18.945 13.4651 18.6497 13.4968 18.2014C13.5284 17.7531 13.5284 17.4841 13.5284 17.2257C13.5452 17.0363 13.5239 16.8454 13.466 16.6643C13.408 16.4832 13.3145 16.3154 13.1909 16.1709C12.817 15.8728 12.3439 15.7277 11.8671 15.7648C11.4012 15.7506 10.943 15.8855 10.5591 16.1498C10.3947 16.2705 10.2832 16.45 10.248 16.6509C10.248 16.7036 10.248 16.7458 10.2163 16.7827C10.2111 16.8194 10.2111 16.8567 10.2163 16.8935C10.2163 17.0148 10.2743 17.0728 10.4115 17.0728C10.9389 17.0728 11.2026 16.9585 11.2026 16.73V16.6298C11.1988 16.5806 11.1988 16.5312 11.2026 16.4821C11.2026 16.2114 11.3661 16.076 11.693 16.076C11.8168 16.0735 11.9393 16.1016 12.0497 16.1577C12.1601 16.2138 12.255 16.2963 12.3259 16.3977C12.4811 16.639 12.555 16.9236 12.5369 17.2099H12.5158ZM16.2076 15.9547V18.8501C16.1856 19.1014 16.2408 19.3535 16.3659 19.5726C16.4404 19.6501 16.5309 19.7105 16.6311 19.7497C16.7312 19.7888 16.8387 19.8058 16.946 19.7994C17.062 19.7994 17.1148 19.8469 17.1148 19.9207C17.1148 19.9946 16.9777 20.0578 16.7087 20.0578H16.4872L16.1022 20.0209L15.6802 19.9893C15.4343 19.9952 15.1893 20.0199 14.9471 20.0631C14.8893 20.0685 14.831 20.0685 14.7731 20.0631C14.6993 20.0631 14.6623 20.0262 14.6623 19.9629C14.6619 19.9412 14.6677 19.9197 14.6789 19.9011C14.69 19.8824 14.7063 19.8673 14.7256 19.8574L14.8997 19.773C14.994 19.7111 15.0632 19.6176 15.0948 19.5093C15.1474 19.3694 15.1742 19.2211 15.1739 19.0716V17.1255C15.1835 16.9457 15.1547 16.766 15.0895 16.5981C15.0586 16.546 15.0133 16.5039 14.959 16.4768C14.9048 16.4496 14.8439 16.4387 14.7837 16.4452H14.6676C14.6443 16.4483 14.6206 16.4466 14.5979 16.4402C14.5753 16.4339 14.5541 16.423 14.5358 16.4083C14.529 16.3841 14.529 16.3586 14.5358 16.3344C14.5358 16.2448 14.6412 16.1815 14.8469 16.1393C15.2855 16.0633 15.7027 15.8942 16.0705 15.6435C16.0948 15.6239 16.124 15.6111 16.1549 15.6066C16.2024 15.6066 16.2235 15.6435 16.2235 15.7015V15.749C16.2077 15.7807 16.2024 15.8334 16.2024 15.9547H16.2076ZM19.8045 15.8545C19.5579 15.781 19.3024 15.7419 19.0451 15.7385C18.6271 15.7153 18.2143 15.8404 17.8795 16.0918C17.7393 16.2058 17.6276 16.3511 17.5535 16.5159C17.4793 16.6807 17.4447 16.8606 17.4523 17.0411C17.4363 17.3238 17.5266 17.6022 17.7055 17.8217C17.9667 18.0631 18.2783 18.2432 18.6179 18.3491C18.8891 18.4402 19.1425 18.5776 19.3668 18.7552C19.4356 18.8237 19.4887 18.9063 19.5224 18.9974C19.5561 19.0885 19.5696 19.1858 19.5619 19.2826C19.5641 19.3726 19.5469 19.4621 19.5114 19.5449C19.4759 19.6277 19.423 19.7019 19.3562 19.7625C19.2854 19.8277 19.2023 19.8781 19.1117 19.9107C19.0211 19.9433 18.925 19.9574 18.8288 19.9524C18.6489 19.9517 18.4725 19.9023 18.3184 19.8094C18.1642 19.7166 18.0381 19.5837 17.9534 19.425C17.7965 19.1901 17.6822 18.9295 17.6158 18.655C17.6158 18.5653 17.5578 18.5178 17.5051 18.5178C17.4523 18.5178 17.3996 18.5178 17.3838 18.5495C17.3713 18.5979 17.3713 18.6487 17.3838 18.6972V19.5041C17.3879 19.5708 17.3879 19.6377 17.3838 19.7045C17.3838 19.7643 17.3838 19.8064 17.3838 19.8311C17.3815 19.8477 17.3827 19.8646 17.3871 19.8808C17.3914 19.897 17.399 19.9122 17.4093 19.9254C17.4196 19.9387 17.4325 19.9498 17.4471 19.958C17.4617 19.9663 17.4778 19.9715 17.4945 19.9735L17.7266 20.0104L18.0799 20.0948C18.3318 20.1587 18.5901 20.1941 18.8499 20.2002C19.0348 20.2033 19.2182 20.1673 19.3881 20.0946C19.5581 20.0219 19.7107 19.9141 19.8362 19.7783C19.9677 19.643 20.0709 19.4828 20.1397 19.3071C20.2085 19.1315 20.2416 18.9438 20.237 18.7552C20.247 18.4628 20.1598 18.1753 19.9891 17.9377C19.9051 17.819 19.7995 17.717 19.678 17.6371C19.4822 17.5226 19.2776 17.4238 19.0662 17.3417L18.7181 17.1994C18.3173 17.0359 18.1221 16.8091 18.1221 16.5243C18.1233 16.446 18.1419 16.3689 18.1765 16.2986C18.2112 16.2284 18.2611 16.1668 18.3225 16.1182C18.4544 16.0045 18.6231 15.9426 18.7972 15.9441C18.9954 15.9562 19.1862 16.024 19.3476 16.1397C19.509 16.2554 19.6345 16.4143 19.7096 16.5981C19.8362 16.8196 19.9206 16.9357 19.9786 16.9357C20.0366 16.9357 20.0841 16.904 20.0841 16.8354C20.0868 16.8162 20.0868 16.7967 20.0841 16.7774V16.0549C20.0155 15.96 19.9417 15.8967 19.7993 15.8545H19.8045ZM23.0375 16.0127C22.8818 16.0088 22.7277 16.0451 22.59 16.1181C22.4524 16.1911 22.3359 16.2983 22.2517 16.4294C22.0417 16.767 21.9404 17.1609 21.9616 17.558C21.9444 18.1438 22.1004 18.7216 22.4099 19.2193C22.5106 19.4166 22.6607 19.5844 22.8456 19.7064C23.0304 19.8284 23.2437 19.9004 23.4647 19.9154C23.6171 19.9174 23.7677 19.8824 23.9036 19.8136C24.0395 19.7447 24.1568 19.6439 24.2453 19.5199C24.4567 19.2238 24.5625 18.8654 24.5459 18.502C24.5664 17.8826 24.411 17.27 24.0976 16.7352C23.9991 16.5319 23.8488 16.358 23.6618 16.2312C23.4748 16.1044 23.2576 16.029 23.0323 16.0127H23.0375ZM23.3012 15.7332C23.5924 15.725 23.8822 15.7749 24.1539 15.88C24.4255 15.985 24.6735 16.1431 24.8835 16.345C25.0922 16.5506 25.2559 16.7975 25.3639 17.0699C25.472 17.3424 25.5221 17.6343 25.5111 17.9272C25.5177 18.2317 25.4601 18.5343 25.342 18.8151C25.2238 19.0959 25.0478 19.3486 24.8254 19.5568C24.6 19.7731 24.3337 19.9424 24.0421 20.0547C23.7505 20.167 23.4395 20.22 23.1272 20.2108C22.5403 20.2263 21.9712 20.0081 21.545 19.6043C21.3365 19.409 21.1718 19.1717 21.0618 18.908C20.9518 18.6444 20.899 18.3604 20.9068 18.0748C20.9016 17.7672 20.9608 17.4618 21.0807 17.1784C21.2006 16.895 21.3785 16.6399 21.603 16.4294C21.8238 16.2053 22.0875 16.0282 22.3785 15.9086C22.6694 15.789 22.9814 15.7293 23.296 15.7332H23.3012ZM30.8959 18.9345V17.8797C30.9417 17.3034 30.819 16.7261 30.5425 16.2184C30.4043 16.0386 30.2234 15.8961 30.0162 15.804C29.8089 15.7119 29.5819 15.673 29.3559 15.691C29.1189 15.6846 28.8837 15.7332 28.6687 15.8329C28.4536 15.9327 28.2646 16.0808 28.1165 16.2659C28.0373 16.3661 27.9793 16.4083 27.953 16.403C27.9266 16.3977 27.9002 16.403 27.8844 16.3397L27.8527 16.1446V15.5961C27.8527 15.5275 27.8527 15.4959 27.7947 15.5011C27.7687 15.5029 27.7443 15.5141 27.7262 15.5328C27.4044 15.7433 27.047 15.8934 26.6714 15.9758C26.5169 16.0074 26.3652 16.0515 26.2178 16.1076C26.192 16.1195 26.1706 16.1391 26.1565 16.1636C26.1423 16.1882 26.1361 16.2165 26.1387 16.2448C26.1293 16.2685 26.1293 16.2949 26.1387 16.3186C26.1485 16.3297 26.1608 16.3383 26.1745 16.3438C26.1882 16.3493 26.203 16.3515 26.2178 16.3502H26.4551C26.5098 16.3444 26.5649 16.3548 26.6137 16.3801C26.6625 16.4054 26.7027 16.4446 26.7294 16.4926C26.7933 16.6607 26.8185 16.8409 26.8032 17.02V19.1929C26.8154 19.337 26.7918 19.4819 26.7347 19.6148C26.648 19.7173 26.532 19.7909 26.4024 19.8258C26.3791 19.8324 26.3584 19.8461 26.3433 19.865C26.3281 19.8839 26.3193 19.9071 26.318 19.9313C26.318 20.0051 26.3602 20.0367 26.4446 20.0367C26.5294 20.0335 26.614 20.0247 26.6977 20.0104C26.9248 19.977 27.1539 19.9593 27.3834 19.9576C27.6498 19.9671 27.9156 19.9899 28.1797 20.0262C28.338 20.0262 28.4698 20.0262 28.5858 20.0262C28.7019 20.0262 28.7652 19.9787 28.7652 19.8838C28.7652 19.7889 28.7177 19.7783 28.6228 19.7678C28.5123 19.7677 28.403 19.7452 28.3015 19.7017C28.2 19.6582 28.1083 19.5945 28.0321 19.5146C27.897 19.3127 27.8338 19.0712 27.8527 18.829V17.1255C27.8492 17.0104 27.871 16.896 27.9166 16.7903C27.9621 16.6846 28.0304 16.5902 28.1165 16.5137C28.3092 16.352 28.556 16.2691 28.8074 16.2817C28.9573 16.2791 29.1054 16.3151 29.2375 16.3862C29.3696 16.4573 29.4811 16.5612 29.5615 16.6878C29.7633 17.0188 29.8607 17.4029 29.8411 17.79V18.9978C29.85 19.1767 29.8249 19.3556 29.7672 19.5252C29.7369 19.5844 29.6945 19.6366 29.6427 19.6784C29.5909 19.7202 29.5309 19.7507 29.4666 19.7678C29.3875 19.7994 29.3506 19.8416 29.3506 19.8943C29.3489 19.9093 29.3506 19.9244 29.3556 19.9386C29.3606 19.9528 29.3687 19.9657 29.3793 19.9764C29.3899 19.987 29.4028 19.9951 29.417 20.0001C29.4312 20.0051 29.4464 20.0068 29.4613 20.0051C29.5298 20.0113 29.5986 20.0113 29.667 20.0051C29.9229 19.9603 30.1826 19.9408 30.4423 19.9471C30.56 19.9411 30.6779 19.9411 30.7957 19.9471L31.1279 19.984C31.2017 19.9893 31.2757 19.9893 31.3494 19.984C31.5921 19.984 31.7134 19.9313 31.7134 19.8258C31.7134 19.7203 31.6606 19.715 31.5551 19.6992C31.3847 19.6857 31.2218 19.6234 31.0857 19.5199C31.0102 19.462 30.9533 19.3831 30.9223 19.2931C30.8912 19.1458 30.8788 18.9952 30.8853 18.8448L30.8959 18.9345ZM36.7764 13.3757L38.8861 17.9535C38.9757 18.1539 39.0548 18.2541 39.1129 18.2489C39.1709 18.2436 39.2394 18.175 39.3027 18.0379L41.2277 13.9295C41.3354 13.6755 41.466 13.4319 41.618 13.2017C41.6535 13.1544 41.6998 13.1163 41.753 13.0906C41.8062 13.0649 41.8648 13.0523 41.9239 13.054H42.1507C42.2526 13.0599 42.3547 13.0599 42.4566 13.054C42.633 13.0516 42.809 13.0393 42.984 13.0171H43.2213C43.3374 13.0171 43.4007 13.0646 43.4007 13.1595C43.4007 13.2544 43.3532 13.2808 43.2635 13.2861C43.1345 13.2838 43.0068 13.3117 42.8905 13.3676C42.7742 13.4234 42.6726 13.5057 42.5937 13.6078C42.443 13.906 42.3773 14.2399 42.4039 14.5729V14.921L42.5252 18.0854V18.2911C42.4953 18.6599 42.582 19.0289 42.773 19.3459C42.8721 19.4666 42.9958 19.5649 43.1358 19.634C43.2759 19.7031 43.4291 19.7415 43.5852 19.7467C43.6049 19.7466 43.6243 19.7506 43.6423 19.7584C43.6603 19.7662 43.6765 19.7777 43.6899 19.792C43.7032 19.8064 43.7135 19.8234 43.72 19.8419C43.7265 19.8604 43.7291 19.88 43.7276 19.8996C43.7276 19.9945 43.6116 20.042 43.3796 20.042C43.311 20.042 43.2002 20.042 43.0526 20.0156C42.6359 19.9682 42.3406 19.9471 42.1665 19.9471C41.8668 19.9441 41.5672 19.9618 41.2699 19.9998C41.1164 20.0252 40.9613 20.041 40.8058 20.0473C40.7883 20.0491 40.7706 20.0468 40.7541 20.0408C40.7375 20.0347 40.7226 20.0249 40.7104 20.0122C40.6982 19.9995 40.6891 19.9842 40.6837 19.9674C40.6783 19.9507 40.6768 19.9329 40.6792 19.9154C40.6792 19.8522 40.7267 19.8047 40.8269 19.773C40.9924 19.7398 41.1403 19.6481 41.2436 19.5146C41.334 19.3542 41.3762 19.171 41.3649 18.9872C41.3649 18.8765 41.3649 18.7921 41.3649 18.7499L41.2119 15.364C41.2119 15.2744 41.2119 15.2269 41.1434 15.2269C41.0748 15.2269 41.022 15.3166 40.9324 15.5064L39.0074 19.5832L38.9388 19.7361C38.8386 19.9471 38.7595 20.0526 38.6962 20.0578C38.6329 20.0631 38.4958 19.8732 38.3217 19.4988L38.058 18.9714L36.4178 15.3218L36.3809 15.248C36.3745 15.2369 36.3652 15.2276 36.3541 15.2211C36.343 15.2146 36.3304 15.2112 36.3176 15.2111C36.2649 15.2111 36.2332 15.2796 36.2332 15.422V15.5855L36.1699 18.1645V18.3702L36.2174 18.8501C36.2386 19.0681 36.3272 19.2742 36.4709 19.4395C36.6145 19.6049 36.8061 19.7215 37.0191 19.773C37.172 19.81 37.2511 19.868 37.2511 19.9471C37.2511 20.0262 37.1878 20.0789 37.0718 20.0789C36.9629 20.0857 36.8537 20.0857 36.7448 20.0789L36.3809 20.0262C36.2474 20.0175 36.1135 20.0175 35.9801 20.0262C35.7365 20.0203 35.4929 20.0362 35.2522 20.0737C35.1689 20.0916 35.0842 20.1022 34.9991 20.1053C34.8936 20.1053 34.8409 20.0631 34.8409 19.9682C34.8409 19.8733 34.8831 19.8627 34.9622 19.8311C35.2085 19.7541 35.4149 19.5837 35.537 19.3564C35.6705 19.0621 35.7319 18.7404 35.7164 18.4176L35.8588 15.0634V14.7206C35.8772 14.3749 35.7705 14.0341 35.5581 13.7607C35.4548 13.6461 35.3276 13.5554 35.1854 13.4953C35.0433 13.4351 34.8896 13.4069 34.7354 13.4127C34.6035 13.4127 34.5402 13.3652 34.5402 13.265C34.5402 13.1648 34.6141 13.1173 34.7618 13.1173H35.3841C35.5411 13.1163 35.6978 13.1058 35.8535 13.0857C36.0855 13.0593 36.2332 13.0487 36.3018 13.0487C36.4046 13.0465 36.5054 13.0769 36.5898 13.1357C36.6741 13.1945 36.7377 13.2785 36.7712 13.3757H36.7764ZM45.5525 18.2225C45.6636 18.1176 45.7945 18.0361 45.9376 17.9827C46.0808 17.9292 46.2331 17.905 46.3858 17.9113C46.4221 17.902 46.4602 17.902 46.4965 17.9113L46.5282 18.0221V18.5495C46.5357 18.7723 46.518 18.9952 46.4754 19.214C46.4642 19.271 46.4415 19.3251 46.4089 19.3731C46.3763 19.4211 46.3344 19.4621 46.2856 19.4935C46.1101 19.6024 45.9066 19.6574 45.7001 19.6517C45.3485 19.6517 45.1727 19.4267 45.1727 18.9767C45.177 18.8308 45.2132 18.6877 45.2788 18.5574C45.3444 18.4271 45.4378 18.3128 45.5525 18.2225ZM46.5493 17.2099C46.5458 17.3453 46.5264 17.4799 46.4912 17.6107C45.9075 17.6941 45.3356 17.8463 44.7877 18.0643C44.5663 18.1693 44.381 18.3376 44.2553 18.5478C44.1295 18.7581 44.0688 19.0009 44.081 19.2457C44.074 19.3723 44.0923 19.4991 44.1348 19.6187C44.1774 19.7382 44.2434 19.8481 44.3289 19.9418C44.4189 20.0283 44.5258 20.0954 44.6428 20.139C44.7598 20.1825 44.8845 20.2016 45.0092 20.195C45.582 20.1404 46.129 19.9307 46.5914 19.5885C46.7971 19.9787 47.045 20.1739 47.3456 20.1739C47.4873 20.1758 47.6272 20.1413 47.7517 20.0737L47.9258 19.9735L48.1262 19.868C48.2581 19.7889 48.3266 19.7098 48.3266 19.6254C48.3285 19.6153 48.3279 19.6048 48.3249 19.595C48.3218 19.5852 48.3164 19.5763 48.3092 19.569C48.3019 19.5617 48.293 19.5563 48.2831 19.5533C48.2733 19.5502 48.2629 19.5496 48.2528 19.5515C48.2123 19.5572 48.1731 19.5697 48.1367 19.5885C48.0664 19.6165 47.9909 19.6291 47.9152 19.6254C47.6357 19.6254 47.4933 19.4513 47.4933 19.098C47.4933 18.945 47.4933 18.6497 47.525 18.2014C47.5566 17.7531 47.5566 17.4841 47.5566 17.2257C47.5733 17.0363 47.5521 16.8454 47.4941 16.6643C47.4362 16.4832 47.3427 16.3154 47.2191 16.1709C46.8452 15.8728 46.372 15.7277 45.8953 15.7648C45.4294 15.7506 44.9712 15.8855 44.5873 16.1498C44.4216 16.2693 44.3098 16.4494 44.2761 16.6509V16.7827C44.2709 16.8194 44.2709 16.8567 44.2761 16.8935C44.2761 17.0148 44.3342 17.0728 44.4713 17.0728C44.9987 17.0728 45.2624 16.9585 45.2624 16.73V16.6298C45.2579 16.5806 45.2579 16.5312 45.2624 16.4821C45.2624 16.2131 45.4259 16.076 45.7529 16.076C45.8766 16.074 45.9989 16.1023 46.1092 16.1584C46.2195 16.2144 46.3145 16.2966 46.3858 16.3977C46.5591 16.64 46.6464 16.9333 46.6336 17.231L46.5493 17.2099ZM50.2411 17.4841V18.945C50.2264 19.0549 50.2346 19.1667 50.2652 19.2732C50.2959 19.3797 50.3483 19.4788 50.4192 19.564C50.4901 19.6493 50.5779 19.7189 50.677 19.7685C50.7762 19.8181 50.8846 19.8466 50.9953 19.8522C51.1008 19.8522 51.1535 19.9102 51.1535 19.9787C51.1535 20.0473 51.1166 20.1053 51.0375 20.1053H50.8951C50.5461 20.0513 50.1934 20.0249 49.8403 20.0262C49.6504 20.0262 49.4764 20.0262 49.3129 20.0262L48.9964 20.0578H48.8171C48.7222 20.0578 48.6747 20.0104 48.6747 19.926C48.6747 19.8416 48.7169 19.8205 48.8013 19.7994C49.072 19.7361 49.2074 19.483 49.2074 19.04V16.9937C49.225 16.8244 49.1919 16.6537 49.1124 16.5032C48.999 16.4041 48.8515 16.3531 48.7011 16.3608C48.622 16.3608 48.585 16.3186 48.585 16.25C48.585 16.1815 48.6325 16.1287 48.7222 16.1129C49.1456 16.0564 49.5551 15.9223 49.9299 15.7174L50.1303 15.6013C50.1544 15.594 50.1801 15.594 50.2042 15.6013C50.2569 15.6013 50.2833 15.6383 50.2833 15.7121C50.2833 15.7859 50.2833 15.749 50.2833 15.7859V16.5243C50.2833 16.5718 50.3202 16.5981 50.3624 16.6034C50.4046 16.6087 50.4732 16.5243 50.5839 16.3555C50.7031 16.1964 50.8453 16.056 51.0058 15.9389C51.1161 15.8306 51.2523 15.7526 51.4014 15.7121C51.5987 15.7481 51.7816 15.8395 51.9288 15.9758C52.1608 16.1551 52.2769 16.2817 52.2822 16.3766C52.2412 16.5019 52.1864 16.6222 52.1187 16.7352C51.9763 16.9989 51.8549 17.1308 51.7442 17.1308C51.6985 17.1293 51.6551 17.1104 51.6229 17.078L51.4805 16.9515C51.3217 16.7951 51.1074 16.7079 50.8845 16.7089C50.4046 16.6878 50.2094 16.9568 50.2094 17.4841H50.2411ZM53.8855 16.2553C53.9547 16.157 54.0475 16.0775 54.1552 16.0241C54.263 15.9707 54.3823 15.945 54.5025 15.9494C55.0616 15.9494 55.3429 16.4012 55.3464 17.3048C55.3606 17.588 55.2809 17.868 55.1196 18.1012C55.0509 18.1959 54.9604 18.2727 54.8558 18.3251C54.7511 18.3774 54.6353 18.4037 54.5183 18.4018C54.3929 18.3996 54.2702 18.3644 54.1628 18.2995C54.0554 18.2347 53.967 18.1426 53.9066 18.0326C53.7344 17.7507 53.65 17.4239 53.664 17.0939C53.6345 16.8018 53.6992 16.508 53.8485 16.2553H53.8855ZM53.4583 20.4745C53.4993 20.4286 53.5498 20.3921 53.6062 20.3675C53.6626 20.3429 53.7237 20.3309 53.7852 20.3321H54.0384C54.1914 20.3321 54.4181 20.3848 54.7135 20.4007C55.0331 20.4098 55.3504 20.4594 55.6575 20.5483C55.7257 20.5783 55.7824 20.6292 55.8194 20.6938C55.8564 20.7583 55.8718 20.833 55.8632 20.9069C55.8644 21.0175 55.8337 21.126 55.7748 21.2196C55.7159 21.3131 55.6312 21.3877 55.531 21.4343C55.262 21.5714 54.9623 21.6367 54.6607 21.6242C54.3212 21.6427 53.9833 21.566 53.6851 21.4027C53.5764 21.3444 53.4856 21.2576 53.4225 21.1517C53.3593 21.0458 53.3261 20.9248 53.3264 20.8015C53.3203 20.6857 53.3559 20.5716 53.4266 20.4798L53.4583 20.4745ZM56.4012 15.9547C56.2457 16.0644 56.0635 16.13 55.8738 16.1446C55.4801 15.8644 55.0067 15.7184 54.5236 15.7279C54.0516 15.7098 53.5877 15.8551 53.2104 16.1393C53.0441 16.2597 52.9094 16.4185 52.8175 16.6021C52.7257 16.7857 52.6796 16.9888 52.683 17.1941C52.6884 17.4104 52.7463 17.6222 52.8517 17.8111C52.9368 17.9975 53.0742 18.1551 53.2473 18.2647C53.3844 18.3491 53.4583 18.4176 53.4583 18.4651C53.4575 18.4841 53.4528 18.5028 53.4447 18.52C53.4365 18.5372 53.425 18.5526 53.4108 18.5653L53.2473 18.7183C53.1379 18.8134 53.0502 18.9309 52.9902 19.0628C52.9301 19.1947 52.8991 19.338 52.8992 19.483C52.9056 19.6811 52.9866 19.8695 53.126 20.0104L53.2789 20.1633L53.3211 20.2319C53.3211 20.2319 53.2368 20.2899 53.0733 20.3215C52.9237 20.3525 52.7906 20.4368 52.6988 20.5589C52.5997 20.6733 52.5437 20.8188 52.5406 20.9702C52.5457 21.1184 52.5966 21.2614 52.6864 21.3795C52.7761 21.4975 52.9002 21.5849 53.0416 21.6295C53.5045 21.8032 53.9981 21.8804 54.492 21.8563C55.0741 21.8996 55.6538 21.7454 56.1375 21.4185C56.3003 21.2949 56.4326 21.1354 56.524 20.9525C56.6155 20.7697 56.6637 20.5682 56.6649 20.3637C56.6789 20.2007 56.6383 20.0376 56.5495 19.9002C56.4607 19.7627 56.3288 19.6586 56.1744 19.6043C55.5281 19.4444 54.8614 19.3822 54.1966 19.4197C53.6692 19.4197 53.4266 19.272 53.4266 18.9767C53.4241 18.8629 53.4636 18.7521 53.5374 18.6655C53.5698 18.6256 53.6109 18.5935 53.6574 18.5716C53.704 18.5496 53.7549 18.5385 53.8063 18.5389C53.866 18.5326 53.9261 18.5326 53.9857 18.5389C54.1595 18.5727 54.336 18.5903 54.5131 18.5917C54.976 18.6078 55.4321 18.4767 55.8158 18.2172C55.9745 18.1179 56.1059 17.9805 56.198 17.8175C56.2901 17.6544 56.34 17.471 56.3432 17.2837C56.3432 17.2468 56.3432 17.1466 56.3432 16.9831C56.3391 16.9322 56.3391 16.8811 56.3432 16.8302C56.4567 16.7824 56.5646 16.7223 56.6649 16.6509C56.7106 16.6042 56.737 16.5421 56.7387 16.4768C56.7387 16.4188 56.7387 16.2975 56.7862 16.1024C56.8171 15.9279 56.8382 15.7518 56.8495 15.575C56.8495 15.4853 56.8178 15.4431 56.7598 15.4431C56.7018 15.4431 56.6649 15.4748 56.6596 15.5486C56.6411 15.6344 56.6054 15.7156 56.5547 15.7872C56.5039 15.8588 56.4391 15.9194 56.3643 15.9652L56.4012 15.9547ZM58.8853 15.9547V18.8501C58.8625 19.1015 58.9178 19.3538 59.0435 19.5726C59.118 19.6501 59.2085 19.7105 59.3087 19.7497C59.4088 19.7888 59.5163 19.8058 59.6236 19.7994C59.7344 19.7994 59.7924 19.8469 59.7924 19.9207C59.7924 19.9946 59.6606 20.0578 59.3863 20.0578H59.1648L58.7376 19.9998L58.3209 19.9682C58.075 19.974 57.83 19.9986 57.5878 20.042H57.4138C57.34 20.042 57.303 20.0051 57.303 19.9418C57.3031 19.9195 57.3096 19.8977 57.3218 19.879C57.334 19.8603 57.3512 19.8455 57.3716 19.8363L57.5456 19.7519C57.639 19.6902 57.7065 19.5964 57.7355 19.4882C57.7889 19.3485 57.8157 19.2001 57.8146 19.0505V17.1044C57.8243 16.9246 57.7956 16.7448 57.7302 16.577C57.6997 16.5258 57.6552 16.4842 57.602 16.4572C57.5488 16.4301 57.4891 16.4186 57.4296 16.4241H57.3136C57.2903 16.4275 57.2665 16.4259 57.2438 16.4196C57.221 16.4132 57.1999 16.4022 57.1817 16.3872C57.1744 16.3631 57.1744 16.3374 57.1817 16.3133C57.1817 16.2237 57.2872 16.1604 57.4929 16.1182C57.9333 16.0428 58.3523 15.8737 58.7218 15.6224C58.7459 15.6026 58.7751 15.5898 58.8062 15.5855C58.8483 15.5855 58.8747 15.6224 58.8747 15.6804V15.7279C58.8675 15.8033 58.8675 15.8793 58.8747 15.9547H58.8853ZM61.3588 16.3239C61.4249 16.2222 61.5145 16.1379 61.6201 16.0782C61.7257 16.0186 61.8441 15.9852 61.9653 15.9811C62.0914 15.9835 62.2156 16.013 62.3293 16.0676C62.4431 16.1222 62.5438 16.2006 62.6246 16.2975C62.8105 16.496 62.9125 16.7586 62.9094 17.0306C62.9094 17.2152 62.7617 17.3048 62.4611 17.3048H61.575C61.4406 17.3127 61.3057 17.3021 61.1742 17.2732C61.1267 17.2732 61.1004 17.1941 61.1004 17.0939C61.0885 16.8142 61.1681 16.5384 61.3271 16.3081L61.3588 16.3239ZM63.4684 16.3239C63.2946 16.1231 63.0785 15.9632 62.8357 15.8556C62.5929 15.748 62.3293 15.6953 62.0638 15.7014C61.7983 15.7074 61.5374 15.772 61.2997 15.8906C61.0621 16.0091 60.8535 16.1787 60.689 16.3872C60.2958 16.8297 60.0831 17.4038 60.093 17.9957C60.0664 18.5758 60.2669 19.1434 60.6521 19.5779C60.8333 19.7782 61.056 19.9367 61.3046 20.0424C61.5532 20.148 61.8219 20.1983 62.0919 20.1897C62.6484 20.1796 63.1809 19.9613 63.5844 19.5779C63.8481 19.3459 63.98 19.1771 63.98 19.0822C63.9819 19.0674 63.9803 19.0524 63.9753 19.0383C63.9703 19.0243 63.9621 19.0117 63.9513 19.0014C63.9405 18.9911 63.9275 18.9835 63.9132 18.9792C63.899 18.975 63.8839 18.9741 63.8692 18.9767C63.853 18.9774 63.8371 18.9815 63.8226 18.9888C63.808 18.9961 63.7952 19.0063 63.7849 19.0189L63.6214 19.1771C63.4796 19.307 63.3132 19.4071 63.132 19.4714C62.9508 19.5358 62.7585 19.563 62.5666 19.5515C62.3672 19.5471 62.1714 19.4973 61.9941 19.4059C61.8168 19.3145 61.6627 19.184 61.5434 19.0241C61.2539 18.6929 61.0962 18.2668 61.1004 17.827C61.0942 17.7585 61.115 17.6904 61.1584 17.6371C61.2163 17.6053 61.2827 17.5924 61.3483 17.6002H63.653C63.8376 17.6002 63.9273 17.5316 63.9273 17.3998C63.9064 17.0001 63.7349 16.6232 63.4473 16.345L63.4684 16.3239ZM68.848 18.2014C68.9598 18.0961 69.0917 18.0144 69.2357 17.9609C69.3798 17.9075 69.5331 17.8835 69.6865 17.8902C69.7228 17.8809 69.7609 17.8809 69.7973 17.8902L69.8289 18.001V18.5284C69.8363 18.7512 69.8186 18.9741 69.7762 19.1929C69.7652 19.25 69.7427 19.3042 69.7101 19.3522C69.6774 19.4003 69.6353 19.4412 69.5863 19.4724C69.4094 19.5823 69.2038 19.6374 68.9956 19.6306C68.637 19.6306 68.4682 19.4039 68.4682 18.9556C68.4722 18.8154 68.5058 18.6777 68.5667 18.5513C68.6276 18.425 68.7144 18.313 68.8216 18.2225L68.848 18.2014ZM69.8447 17.1888C69.8413 17.3242 69.8218 17.4588 69.7867 17.5896C69.2013 17.6731 68.6277 17.8254 68.0779 18.0432C67.8575 18.149 67.6733 18.3176 67.5485 18.5278C67.4237 18.738 67.3639 18.9804 67.3765 19.2246C67.3692 19.3513 67.3873 19.4782 67.4299 19.5977C67.4725 19.7173 67.5386 19.8271 67.6244 19.9207C67.7142 20.0075 67.821 20.0748 67.9381 20.1183C68.0552 20.1619 68.18 20.1808 68.3047 20.1739C68.8775 20.1193 69.4245 19.9096 69.8869 19.5674C70.0944 19.9576 70.3475 20.1528 70.6464 20.1528C70.7881 20.1547 70.9279 20.1202 71.0525 20.0526L71.2265 19.9524L71.427 19.8469C71.5588 19.7678 71.6274 19.6887 71.6274 19.6043C71.6293 19.5942 71.6287 19.5837 71.6256 19.5739C71.6226 19.5641 71.6172 19.5552 71.6099 19.5479C71.6026 19.5406 71.5937 19.5352 71.5839 19.5322C71.5741 19.5292 71.5636 19.5285 71.5535 19.5304C71.513 19.5357 71.4737 19.5482 71.4375 19.5674C71.3672 19.5954 71.2916 19.608 71.216 19.6043C70.9365 19.6043 70.7941 19.4302 70.7941 19.0769C70.7941 18.9239 70.7941 18.6286 70.8257 18.1803C70.8574 17.732 70.8521 17.4631 70.8521 17.2046C70.8688 17.0152 70.8476 16.8243 70.7896 16.6432C70.7317 16.4621 70.6381 16.2944 70.5145 16.1498C70.1409 15.8512 69.6676 15.706 69.1908 15.7437C68.7249 15.7295 68.2667 15.8644 67.8828 16.1287C67.7171 16.2482 67.6053 16.4283 67.5716 16.6298V16.7669C67.5573 16.8023 67.5484 16.8396 67.5453 16.8776C67.5453 16.9989 67.6033 17.057 67.7404 17.057C68.2678 17.057 68.5315 16.9427 68.5315 16.7141V16.6139C68.5281 16.5648 68.5281 16.5154 68.5315 16.4663C68.5315 16.1955 68.695 16.0602 69.022 16.0602C69.1458 16.0577 69.2683 16.0858 69.3787 16.1419C69.489 16.198 69.5839 16.2804 69.6549 16.3819C69.7954 16.6337 69.8508 16.9241 69.8131 17.2099L69.8447 17.1888ZM15.0632 13.9875C15.0632 13.8592 15.1012 13.7338 15.1725 13.6271C15.2438 13.5204 15.3451 13.4373 15.4636 13.3882C15.5822 13.3391 15.7126 13.3263 15.8384 13.3513C15.9643 13.3763 16.0799 13.4381 16.1706 13.5288C16.2613 13.6195 16.3231 13.7351 16.3481 13.861C16.3732 13.9868 16.3603 14.1172 16.3112 14.2358C16.2621 14.3543 16.179 14.4556 16.0723 14.5269C15.9656 14.5982 15.8402 14.6362 15.7119 14.6362C15.5398 14.6362 15.3748 14.5679 15.2532 14.4462C15.1315 14.3245 15.0632 14.1596 15.0632 13.9875ZM58.284 13.2755C58.1557 13.2755 58.0303 13.3136 57.9236 13.3849C57.8169 13.4561 57.7338 13.5574 57.6847 13.676C57.6356 13.7945 57.6227 13.9249 57.6478 14.0508C57.6728 14.1766 57.7346 14.2922 57.8253 14.3829C57.916 14.4736 58.0316 14.5354 58.1575 14.5605C58.2833 14.5855 58.4137 14.5726 58.5323 14.5235C58.6508 14.4744 58.7521 14.3913 58.8234 14.2846C58.8947 14.1779 58.9327 14.0525 58.9327 13.9242C58.9327 13.7522 58.8644 13.5872 58.7427 13.4655C58.6211 13.3439 58.4561 13.2755 58.284 13.2755Z" fill="#8C8D8F"/>
</g>
</svg>
