<svg width="72" height="40" viewBox="0 0 72 40" fill="none" xmlns="http://www.w3.org/2000/svg">
<g id="logo-frame">
<g id="logo">
<path d="M14.2652 10.7L3.22217 15.815L5.97364 26.2861L8.06788 26.0281L7.49233 19.4446L8.17927 19.1383L9.36749 25.8684L12.947 25.4303L12.3102 18.1617L12.9916 17.8591L14.2967 25.2632L17.9171 24.8194L17.2209 16.8528L17.9097 16.5465L19.3374 24.6449L22.9169 24.2049V12.8667L14.2652 10.7Z" fill="#8C8D8F"/>
<path d="M14.5251 26.5832L14.7071 27.6136L22.9169 28.9819V25.5528L14.5288 26.5813L14.5251 26.5832Z" fill="#8C8D8F"/>
<path d="M30.683 24.4314V25.8443H32.4227C32.422 26.1305 32.3479 26.4118 32.2073 26.6612C32.0603 26.9094 31.8424 27.1079 31.5816 27.2312C31.2699 27.3743 30.9294 27.4436 30.5865 27.4335C30.1921 27.4433 29.8039 27.3339 29.4725 27.1198C29.1476 26.8946 28.8969 26.5779 28.7522 26.21C28.5721 25.7497 28.4863 25.2579 28.4997 24.7637C28.4862 24.2731 28.5747 23.7851 28.7596 23.3304C28.9089 22.9661 29.1612 22.6532 29.4855 22.43C29.8116 22.2181 30.194 22.1094 30.5828 22.1181C30.7855 22.1159 30.9874 22.1428 31.1825 22.1979C31.3562 22.2468 31.5201 22.3253 31.667 22.43C31.8068 22.5318 31.9275 22.6575 32.0235 22.8013C32.1248 22.9538 32.2018 23.121 32.2519 23.297H34.1827C34.1318 22.8918 33.9998 22.501 33.7947 22.1478C33.5912 21.7987 33.3234 21.4913 33.0056 21.2418C32.6719 20.9811 32.2948 20.7813 31.8917 20.6514C31.4565 20.5098 31.0014 20.4396 30.5438 20.4434C30.0083 20.4385 29.4769 20.5368 28.9787 20.7331C28.5001 20.9236 28.0673 21.2134 27.7088 21.5834C27.334 21.9745 27.0444 22.4392 26.8585 22.948C26.6466 23.5372 26.5434 24.16 26.554 24.786C26.5331 25.5832 26.7071 26.3735 27.0608 27.0882C27.3791 27.7089 27.8697 28.2246 28.4737 28.5735C29.0877 28.901 29.77 29.0802 30.4657 29.0967C31.1615 29.1131 31.8514 28.9664 32.4802 28.6682C33.0224 28.39 33.4734 27.9621 33.7798 27.4354C34.1085 26.8488 34.2721 26.1841 34.2533 25.5119V24.4203L30.683 24.4314Z" fill="#8C8D8F"/>
<path d="M54.7222 28.9968V20.5623H60.4999V22.1218H56.6289V23.997H59.7592V25.5565H56.6289V27.4354H60.5092V28.9968H54.7222Z" fill="#8C8D8F"/>
<path d="M66.1087 23.0427C66.1003 22.8977 66.0606 22.7562 65.9923 22.628C65.9241 22.4999 65.8289 22.388 65.7133 22.3C65.4274 22.1077 65.0863 22.0144 64.7423 22.0345C64.5037 22.0279 64.2661 22.067 64.0423 22.1497C63.8733 22.2111 63.7248 22.3185 63.6134 22.4597C63.5175 22.5892 63.4654 22.746 63.4649 22.9071C63.459 23.0368 63.4899 23.1656 63.554 23.2785C63.6205 23.3897 63.712 23.4838 63.8214 23.5532C63.9507 23.6367 64.0898 23.704 64.2354 23.7538C64.4049 23.8131 64.5779 23.8621 64.7534 23.9004L65.496 24.0731C65.8595 24.1494 66.2136 24.2646 66.5524 24.4166C66.8468 24.5477 67.1188 24.7244 67.3582 24.9401C67.577 25.14 67.7515 25.3835 67.8706 25.6549C67.9967 25.948 68.0599 26.2642 68.0563 26.5832C68.069 27.0652 67.9308 27.539 67.6608 27.9385C67.3755 28.3343 66.9814 28.6387 66.5264 28.8148C65.9591 29.034 65.354 29.1388 64.746 29.123C64.1284 29.1363 63.5142 29.0291 62.9376 28.8074C62.452 28.6191 62.0342 28.2892 61.7383 27.8605C61.4378 27.3889 61.2816 26.8398 61.289 26.2806H63.1252C63.1319 26.5296 63.212 26.7712 63.3554 26.9749C63.4979 27.164 63.691 27.3088 63.9124 27.3927C64.1709 27.49 64.4456 27.5373 64.7218 27.5319C64.9747 27.5376 65.2264 27.4967 65.4645 27.4112C65.6535 27.3443 65.8209 27.2275 65.949 27.0733C66.0623 26.9308 66.1238 26.7541 66.1236 26.5721C66.1249 26.4107 66.069 26.2542 65.9657 26.1302C65.8377 25.9903 65.6788 25.8822 65.5016 25.8146C65.2521 25.7128 64.9943 25.6326 64.7311 25.5751L63.8288 25.356C63.2028 25.231 62.6177 24.9522 62.1263 24.5447C61.9181 24.3555 61.7545 24.1225 61.6473 23.8624C61.5401 23.6024 61.4919 23.3217 61.5062 23.0408C61.4936 22.5558 61.6396 22.0799 61.9221 21.6855C62.2186 21.2852 62.6175 20.9722 63.0769 20.7795C63.605 20.5556 64.1743 20.4449 64.7478 20.4546C65.3217 20.4411 65.8917 20.552 66.4188 20.7795C66.8683 20.9719 67.2543 21.2872 67.5327 21.6892C67.7993 22.0906 67.9396 22.5627 67.9356 23.0445L66.1087 23.0427Z" fill="#8C8D8F"/>
<path d="M53.3632 28.9968H51.4769V22.5841L51.2838 22.5822L49.3789 28.9968H47.4945L45.6398 22.5822L45.4003 22.5841V28.9968H43.5121V20.5623H46.7184L48.3374 26.2137H48.5342L50.1531 20.5623H53.3632V28.9968Z" fill="#8C8D8F"/>
<path d="M40.5471 28.9949H42.5894L39.7581 20.5604H37.1663L34.3294 28.9949H36.3716L36.9286 27.1383H39.9901L40.5471 28.9949ZM37.3686 25.6753L38.2969 22.5822H38.6423L39.5706 25.6753H37.3686Z" fill="#8C8D8F"/>
<path d="M68.5149 21.4516C68.4555 21.4517 68.3968 21.4397 68.3422 21.4163C68.2351 21.371 68.1499 21.2857 68.1045 21.1787C68.0817 21.1236 68.07 21.0646 68.07 21.0051C68.07 20.9455 68.0817 20.8865 68.1045 20.8315C68.15 20.7245 68.2352 20.6393 68.3422 20.5938C68.3972 20.571 68.4562 20.5593 68.5158 20.5593C68.5754 20.5593 68.6344 20.571 68.6894 20.5938C68.7963 20.6393 68.8815 20.7245 68.927 20.8315C68.9498 20.8865 68.9616 20.9455 68.9616 21.0051C68.9616 21.0646 68.9498 21.1236 68.927 21.1787C68.8815 21.2856 68.7963 21.3708 68.6894 21.4163C68.6348 21.4397 68.5761 21.4517 68.5167 21.4516M68.5167 21.3309C68.5742 21.3313 68.6308 21.3159 68.6801 21.2863C68.7284 21.2579 68.7686 21.2176 68.7971 21.1694C68.8259 21.1198 68.8411 21.0634 68.8411 21.006C68.8411 20.9486 68.8259 20.8922 68.7971 20.8426C68.7686 20.7943 68.7284 20.7541 68.6801 20.7256C68.6304 20.697 68.5741 20.6819 68.5167 20.6819C68.4594 20.6819 68.403 20.697 68.3533 20.7256C68.3051 20.7542 68.2649 20.7944 68.2364 20.8426C68.2077 20.8923 68.1926 20.9486 68.1926 21.006C68.1926 21.0634 68.2077 21.1197 68.2364 21.1694C68.2648 21.2176 68.3051 21.2579 68.3533 21.2863C68.4027 21.3159 68.4592 21.3313 68.5167 21.3309ZM68.3533 21.2065V20.7962H68.552C68.5789 20.7955 68.6057 20.8013 68.63 20.8129C68.6514 20.8231 68.6694 20.8392 68.6819 20.8593C68.695 20.8818 68.7015 20.9076 68.7005 20.9336C68.7017 20.9596 68.6952 20.9854 68.6819 21.0079C68.6689 21.0282 68.6502 21.0444 68.6281 21.0543C68.6036 21.0654 68.577 21.0711 68.5501 21.071H68.4165V20.9911H68.5297C68.5447 20.9915 68.5593 20.9862 68.5706 20.9763C68.5758 20.971 68.5799 20.9645 68.5825 20.9575C68.585 20.9504 68.586 20.9429 68.5854 20.9354C68.586 20.928 68.585 20.9204 68.5825 20.9134C68.5799 20.9063 68.5758 20.8999 68.5706 20.8946C68.5589 20.8855 68.5444 20.8809 68.5297 20.8816H68.4684V21.2102L68.3533 21.2065ZM68.6207 21.0208L68.7117 21.2065H68.5817L68.4981 21.0208H68.6207Z" fill="#8C8D8F"/>
<path d="M36.704 10.778H34.7973V19.2125H36.704V10.778Z" fill="#8C8D8F"/>
<path d="M45.7586 14.9943C45.7838 15.8109 45.6024 16.6207 45.2313 17.3485C44.9054 17.9659 44.4093 18.4768 43.8017 18.8208C43.1769 19.154 42.4797 19.3283 41.7715 19.3283C41.0634 19.3283 40.3662 19.154 39.7414 18.8208C39.1323 18.473 38.636 17.9574 38.3118 17.3355C37.9676 16.6015 37.7898 15.8005 37.7911 14.9898C37.7924 14.1791 37.9727 13.3787 38.3192 12.6458C38.6451 12.0283 39.1412 11.5173 39.7488 11.1735C40.3738 10.8409 41.071 10.667 41.779 10.667C42.487 10.667 43.1841 10.8409 43.8092 11.1735C44.4167 11.5174 44.9128 12.0284 45.2387 12.6458C45.6098 13.3736 45.7911 14.1833 45.766 14.9999M43.8259 14.9999C43.84 14.5043 43.7555 14.0107 43.5771 13.5481C43.4354 13.1846 43.1885 12.8717 42.8679 12.6495C42.5408 12.4489 42.1645 12.3427 41.7808 12.3427C41.3971 12.3427 41.0209 12.4489 40.6938 12.6495C40.373 12.8719 40.1255 13.1847 39.9827 13.5481C39.6477 14.487 39.6477 15.5129 39.9827 16.4518C40.1254 16.8152 40.3729 17.128 40.6938 17.3504C41.0209 17.551 41.3971 17.6571 41.7808 17.6571C42.1645 17.6571 42.5408 17.551 42.8679 17.3504C43.1886 17.1282 43.4355 16.8153 43.5771 16.4518C43.7555 15.9891 43.84 15.4956 43.8259 14.9999Z" fill="#8C8D8F"/>
<path d="M30.7926 16.2717L31.771 19.2125H33.8634L32.7754 16.0452H31.2902L31.201 15.7723C31.6233 15.7126 32.0285 15.5659 32.3911 15.3415C32.6908 15.1385 32.9365 14.8656 33.107 14.5463C33.2774 14.227 33.3676 13.871 33.3695 13.5091C33.3804 13.0085 33.2518 12.5149 32.9982 12.0832C32.7537 11.6645 32.3898 11.3283 31.953 11.1178C31.4409 10.8788 30.8803 10.7625 30.3154 10.778H26.9272V19.2125H28.8339V16.2717H30.7926ZM30.7573 14.5265C30.4977 14.6217 30.2223 14.6664 29.946 14.6583H28.832V12.3264H29.946C30.2229 12.3179 30.4987 12.3646 30.7573 12.4638C30.9615 12.5453 31.1341 12.6905 31.2493 12.8778C31.3668 13.0668 31.425 13.2867 31.4164 13.5091C31.4255 13.7277 31.3679 13.944 31.2512 14.1292C31.1352 14.3113 30.9632 14.4507 30.761 14.5265" fill="#8C8D8F"/>
<path d="M45.9312 10.778V12.3376H49.2063L49.2954 12.6105C48.883 12.6694 48.4866 12.8102 48.1295 13.0245V19.2088H50.0158V12.3394H52.2102V10.7799L45.9312 10.778Z" fill="#8C8D8F"/>
</g>
</g>
</svg>
