<svg width="24" height="24" viewBox="0 0 24 24" fill="none" xmlns="http://www.w3.org/2000/svg">
<g id="Icons / 24 / Link">
<path id="icon" d="M17.65 14.8437L19.075 13.4187C21.8 10.6937 21.8 7.66875 19.075 4.94375C16.325 2.19375 13.325 2.19375 10.575 4.94375L9.17498 6.34375L10.575 7.76875L12 6.34375C13.95 4.39375 15.7 4.39375 17.65 6.34375C19.6 8.29375 19.6 10.0437 17.65 12.0187L16.25 13.4187L17.65 14.8437ZM4.92498 19.0687C6.29998 20.4437 7.72498 21.1187 9.17498 21.1187C10.6 21.1187 12.05 20.4437 13.425 19.0687L14.825 17.6687L13.425 16.2437L12 17.6687C10.05 19.6187 8.29998 19.6187 6.34998 17.6687C4.39998 15.7188 4.39998 13.9687 6.34998 12.0187L7.74998 10.5937L6.34998 9.16875L4.92498 10.5937C2.19998 13.3187 2.19998 16.3437 4.92498 19.0687Z" fill="#696D70"/>
<path id="Vector 288" d="M8.5 15.5L15.5 8.5" stroke="#696D70" stroke-width="2" stroke-linecap="round"/>
</g>
</svg>
