<svg width="64" height="64" viewBox="0 0 64 64" fill="none" xmlns="http://www.w3.org/2000/svg">
<g filter="url(#filter0_i_1_127)">
<rect width="64" height="64" rx="12" fill="#9758F5"/>
<rect width="64" height="64" rx="12" fill="url(#paint0_radial_1_127)"/>
<path d="M50.8 52H13.7837C11.3447 52 10.1251 52 9.56348 51.5187C9.07619 51.1012 8.81883 50.4752 8.87155 49.8357C8.93231 49.0986 9.79918 48.2408 11.5329 46.5253L44.5552 13.8506L44.5552 13.8506C45.2456 13.1675 45.5908 12.8259 45.9927 12.5817C46.3489 12.3652 46.7369 12.2057 47.1424 12.109C47.5998 12 48.0854 12 49.0567 12H50.8C51.9201 12 52.4802 12 52.908 12.218C53.2843 12.4097 53.5903 12.7157 53.782 13.092C54 13.5198 54 14.0799 54 15.2V48.8C54 49.9201 54 50.4802 53.782 50.908C53.5903 51.2843 53.2843 51.5903 52.908 51.782C52.4802 52 51.9201 52 50.8 52Z" fill="#FBF7EF"/>
<path d="M50.8 52H13.7837C11.3447 52 10.1251 52 9.56348 51.5187C9.07619 51.1012 8.81883 50.4752 8.87155 49.8357C8.93231 49.0986 9.79918 48.2408 11.5329 46.5253L44.5552 13.8506L44.5552 13.8506C45.2456 13.1675 45.5908 12.8259 45.9927 12.5817C46.3489 12.3652 46.7369 12.2057 47.1424 12.109C47.5998 12 48.0854 12 49.0567 12H50.8C51.9201 12 52.4802 12 52.908 12.218C53.2843 12.4097 53.5903 12.7157 53.782 13.092C54 13.5198 54 14.0799 54 15.2V48.8C54 49.9201 54 50.4802 53.782 50.908C53.5903 51.2843 53.2843 51.5903 52.908 51.782C52.4802 52 51.9201 52 50.8 52Z" fill="url(#paint1_linear_1_127)"/>
<g clip-path="url(#clip0_1_127)">
<path d="M50.3321 40.9627C50.6681 40.9751 50.8361 40.9813 50.9657 41.0463C51.1015 41.1144 51.2102 41.2272 51.2733 41.3654C51.3334 41.4973 51.3334 41.6648 51.3334 42C51.3334 42.3351 51.3334 42.5027 51.2733 42.6345C51.2102 42.7728 51.1015 42.8856 50.9656 42.9537C50.8361 43.0187 50.6681 43.0249 50.332 43.0372C41.5099 43.3621 39.6539 43.4588 39.0565 53.0014C39.0347 53.3487 39.0239 53.5224 38.9532 53.6521C38.8845 53.7783 38.7796 53.8769 38.6493 53.9376C38.5154 54 38.3437 54 38.0001 54C37.6566 54 37.4848 54 37.3509 53.9376C37.2206 53.8769 37.1157 53.7783 37.047 53.6521C36.9763 53.5224 36.9655 53.3487 36.9438 53.0013C36.3471 43.4588 34.4895 43.3621 25.6682 43.0372C25.3321 43.0249 25.1641 43.0187 25.0345 42.9537C24.8987 42.8856 24.79 42.7728 24.7269 42.6345C24.6667 42.5027 24.6667 42.3351 24.6667 42C24.6667 41.6648 24.6667 41.4973 24.7269 41.3654C24.79 41.2272 24.8987 41.1144 25.0345 41.0463C25.164 40.9813 25.332 40.9751 25.6681 40.9627C34.4894 40.637 36.3462 40.5403 36.9437 30.9986C36.9654 30.6513 36.9763 30.4776 37.0469 30.3479C37.1157 30.2217 37.2206 30.1231 37.3508 30.0624C37.4847 30 37.6565 30 38 30C38.3436 30 38.5154 30 38.6493 30.0624C38.7795 30.1231 38.8845 30.2217 38.9532 30.3479C39.0238 30.4776 39.0347 30.6513 39.0564 30.9987C39.653 40.5404 41.5099 40.637 50.3321 40.9627Z" fill="#2D2D33"/>
<path d="M50.3321 40.9627C50.6681 40.9751 50.8361 40.9813 50.9657 41.0463C51.1015 41.1144 51.2102 41.2272 51.2733 41.3654C51.3334 41.4973 51.3334 41.6648 51.3334 42C51.3334 42.3351 51.3334 42.5027 51.2733 42.6345C51.2102 42.7728 51.1015 42.8856 50.9656 42.9537C50.8361 43.0187 50.6681 43.0249 50.332 43.0372C41.5099 43.3621 39.6539 43.4588 39.0565 53.0014C39.0347 53.3487 39.0239 53.5224 38.9532 53.6521C38.8845 53.7783 38.7796 53.8769 38.6493 53.9376C38.5154 54 38.3437 54 38.0001 54C37.6566 54 37.4848 54 37.3509 53.9376C37.2206 53.8769 37.1157 53.7783 37.047 53.6521C36.9763 53.5224 36.9655 53.3487 36.9438 53.0013C36.3471 43.4588 34.4895 43.3621 25.6682 43.0372C25.3321 43.0249 25.1641 43.0187 25.0345 42.9537C24.8987 42.8856 24.79 42.7728 24.7269 42.6345C24.6667 42.5027 24.6667 42.3351 24.6667 42C24.6667 41.6648 24.6667 41.4973 24.7269 41.3654C24.79 41.2272 24.8987 41.1144 25.0345 41.0463C25.164 40.9813 25.332 40.9751 25.6681 40.9627C34.4894 40.637 36.3462 40.5403 36.9437 30.9986C36.9654 30.6513 36.9763 30.4776 37.0469 30.3479C37.1157 30.2217 37.2206 30.1231 37.3508 30.0624C37.4847 30 37.6565 30 38 30C38.3436 30 38.5154 30 38.6493 30.0624C38.7795 30.1231 38.8845 30.2217 38.9532 30.3479C39.0238 30.4776 39.0347 30.6513 39.0564 30.9987C39.653 40.5404 41.5099 40.637 50.3321 40.9627Z" fill="url(#paint2_linear_1_127)"/>
</g>
<path d="M27 12.5L26.164 12.291C25.8124 12.2031 25.4913 12.0212 25.235 11.765C24.9788 11.5087 24.7969 11.1876 24.709 10.836L24.5 10H23.5L23.291 10.836C23.2031 11.1876 23.0212 11.5087 22.765 11.765C22.5087 12.0212 22.1876 12.2031 21.836 12.291L21 12.5V13.5L21.836 13.709C22.1876 13.7969 22.5087 13.9788 22.765 14.235C23.0212 14.4913 23.2031 14.8124 23.291 15.164L23.5 16H24.5L24.709 15.164C24.7969 14.8124 24.9788 14.4913 25.235 14.235C25.4913 13.9788 25.8124 13.7969 26.164 13.709L27 13.5V12.5Z" fill="#FBF7EF"/>
<path d="M8 23.4C12 23.4 13.3333 22.2 13.3333 18H14.6667C14.6667 22.2 16 23.4 20 23.4V24.6C16 24.6 14.6667 25.8 14.6667 30H13.3333C13.3333 25.8 12 24.6 8 24.6V23.4Z" fill="#FBF7EF"/>
</g>
<defs>
<filter id="filter0_i_1_127" x="0" y="0" width="64" height="68" filterUnits="userSpaceOnUse" color-interpolation-filters="sRGB">
<feFlood flood-opacity="0" result="BackgroundImageFix"/>
<feBlend mode="normal" in="SourceGraphic" in2="BackgroundImageFix" result="shape"/>
<feColorMatrix in="SourceAlpha" type="matrix" values="0 0 0 0 0 0 0 0 0 0 0 0 0 0 0 0 0 0 127 0" result="hardAlpha"/>
<feOffset dy="4"/>
<feGaussianBlur stdDeviation="4"/>
<feComposite in2="hardAlpha" operator="arithmetic" k2="-1" k3="1"/>
<feColorMatrix type="matrix" values="0 0 0 0 0 0 0 0 0 0.870588 0 0 0 0 0.529412 0 0 0 0.8 0"/>
<feBlend mode="normal" in2="shape" result="effect1_innerShadow_1_127"/>
</filter>
<radialGradient id="paint0_radial_1_127" cx="0" cy="0" r="1" gradientUnits="userSpaceOnUse" gradientTransform="translate(32 64) rotate(-90) scale(64)">
<stop stop-color="#262629"/>
<stop offset="1" stop-color="#9758F5"/>
</radialGradient>
<linearGradient id="paint1_linear_1_127" x1="30" y1="12" x2="30" y2="52" gradientUnits="userSpaceOnUse">
<stop stop-color="#FBF7EF"/>
<stop offset="1" stop-color="#F3EBFF"/>
</linearGradient>
<linearGradient id="paint2_linear_1_127" x1="38.0001" y1="50" x2="38.0001" y2="30" gradientUnits="userSpaceOnUse">
<stop stop-color="#262629"/>
<stop offset="1" stop-color="#9758F5"/>
</linearGradient>
<clipPath id="clip0_1_127">
<rect width="44" height="23" fill="white" transform="translate(10 29)"/>
</clipPath>
</defs>
</svg>
