<svg width="160" height="32" viewBox="0 0 160 32" fill="none" xmlns="http://www.w3.org/2000/svg">
<path d="M0 12.8C0 8.31958 0 6.07937 0.871948 4.36808C1.63893 2.86278 2.86278 1.63893 4.36808 0.871948C6.07937 0 8.31958 0 12.8 0L24.8 0C25.9201 0 26.4802 0 26.908 0.217987C27.2843 0.409734 27.5903 0.715695 27.782 1.09202C28 1.51984 28 2.0799 28 3.2V14.6745C28 15.1637 28 15.4083 27.9447 15.6385C27.8957 15.8425 27.8149 16.0376 27.7053 16.2166C27.5816 16.4184 27.4086 16.5914 27.0627 16.9373L12.9373 31.0627C12.5914 31.4086 12.4184 31.5816 12.2166 31.7053C12.0376 31.8149 11.8425 31.8957 11.6385 31.9447C11.4083 32 11.1637 32 10.6745 32H8C3.58172 32 0 28.4183 0 24V12.8Z" fill="#2D2D33"/>
<path d="M20 17.3255C20 16.8363 20 16.5917 20.0553 16.3615C20.1043 16.1575 20.1851 15.9624 20.2947 15.7834C20.4184 15.5816 20.5914 15.4086 20.9373 15.0627L35.0627 0.937257C35.4086 0.591354 35.5816 0.418403 35.7834 0.29472C35.9624 0.185062 36.1575 0.104254 36.3615 0.0552602C36.5917 0 36.8363 0 37.3255 0H40C44.4183 0 48 3.58172 48 8V19.2C48 23.6804 48 25.9206 47.1281 27.6319C46.3611 29.1372 45.1372 30.3611 43.6319 31.1281C41.9206 32 39.6804 32 35.2 32H23.2C22.0799 32 21.5198 32 21.092 31.782C20.7157 31.5903 20.4097 31.2843 20.218 30.908C20 30.4802 20 29.9201 20 28.8V17.3255Z" fill="#2D2D33"/>
<path d="M35.4964 15.4803C35.5176 15.4811 35.5281 15.4816 35.5357 15.4821C35.792 15.5 35.9929 15.7089 36.0006 15.9658C36.0008 15.9733 36.0008 15.9822 36.0008 16C36.0008 16.0178 36.0008 16.0266 36.0006 16.0342C35.9929 16.2911 35.792 16.5 35.5356 16.5179C35.5281 16.5184 35.5175 16.5188 35.4964 16.5197C27.0746 16.8515 25.0602 17.178 24.5271 26.4946C24.5254 26.5243 24.5246 26.5391 24.5236 26.5487C24.4995 26.7991 24.2966 26.9907 24.0453 27.0005C24.0356 27.0008 24.0237 27.0008 24 27.0008C23.9763 27.0008 23.9644 27.0008 23.9547 27.0005C23.7034 26.9907 23.5005 26.7991 23.4764 26.5487C23.4755 26.539 23.4746 26.5242 23.4729 26.4946C22.9406 17.178 20.9254 16.8515 12.5045 16.5197C12.4833 16.5188 12.4728 16.5184 12.4652 16.5179C12.2089 16.5 12.008 16.2911 12.0002 16.0342C12 16.0266 12 16.0178 12 16C12 15.9822 12 15.9733 12.0002 15.9658C12.008 15.7089 12.2088 15.5 12.4652 15.4821C12.4727 15.4816 12.4833 15.4811 12.5044 15.4803C20.9254 15.1477 22.9398 14.822 23.4729 5.50621C23.4746 5.47658 23.4754 5.46176 23.4764 5.45211C23.5005 5.20177 23.7034 5.01012 23.9547 5.00038C23.9644 5 23.9763 5 24 5C24.0237 5 24.0356 5 24.0453 5.00038C24.2966 5.01012 24.4995 5.20179 24.5236 5.45215C24.5245 5.4618 24.5254 5.47662 24.5271 5.50625C25.0594 14.822 27.0746 15.1477 35.4964 15.4803Z" fill="white"/>
<g clip-path="url(#clip0_1_202)">
<path d="M113.602 22.3033C113.602 21.9105 113.7 21.493 113.872 21.0265L116.72 13.7586H114.415C114.24 13.7586 114.114 13.5927 114.161 13.4251L114.531 12.0855C114.563 11.9712 114.667 11.8924 114.785 11.8924H117.408L118.56 8.13214C118.592 8.02819 118.677 7.94937 118.783 7.92641L120.533 7.54528C120.77 7.49374 120.967 7.72848 120.876 7.9524L119.274 11.8924H122.12C122.294 11.8924 122.42 12.0582 122.374 12.2258L122.003 13.5654C121.972 13.6798 121.868 13.7586 121.75 13.7586H118.537L116.523 19.7251C116.351 20.2651 116.253 20.609 116.253 20.8299C116.253 21.1738 116.4 21.37 116.818 21.37C117.464 21.37 118.374 20.4999 119.252 19.3474C119.401 19.1516 119.681 19.1139 119.875 19.2651C120.051 19.402 120.098 19.6488 119.983 19.8398C118.931 21.5883 117.242 23.9236 115.099 23.9236C114.166 23.9236 113.602 23.2605 113.602 22.3029L113.602 22.3033Z" fill="#2D2D33"/>
<path d="M121.605 22.4264C121.605 22.1808 121.654 21.7143 121.876 21.027L125.461 9.2903C125.608 8.79916 125.681 8.55359 125.681 8.35739C125.681 8.08713 125.509 7.81731 125.043 7.81731C124.871 7.81731 124.601 7.842 124.306 7.89094L123.249 8.03083C122.957 8.06938 122.719 7.79955 122.795 7.51457C122.834 7.36818 122.949 7.25427 123.097 7.21832L128.04 6.01169C128.072 6.0039 128.105 6 128.138 6H128.205C128.494 6 128.695 6.28888 128.592 6.55957C128.221 7.54099 127.694 9.2288 127.376 10.3215L124.429 20.1677C124.331 20.4869 124.208 20.9291 124.208 21.1006C124.208 21.3215 124.356 21.4688 124.552 21.4688C125.095 21.4688 125.599 20.7403 126.082 19.8931C126.191 19.7017 126.427 19.6242 126.628 19.7147C126.85 19.8147 126.943 20.0798 126.833 20.2968C125.816 22.3025 124.761 23.924 123.079 23.924C122.146 23.924 121.606 23.2857 121.606 22.4264H121.605Z" fill="#2D2D33"/>
<path d="M72.424 8.84785C71.9494 8.0622 71.2742 7.45672 70.3984 7.03097C69.5227 6.60523 68.4871 6.39258 67.2922 6.39258H60.7991C60.3577 6.39258 60 6.75032 60 7.19166V22.7813C60 23.2226 60.3577 23.5803 60.7991 23.5803H62.221C62.6623 23.5803 63.02 23.2226 63.02 22.7813V16.9261H67.2922C68.4871 16.9261 69.5227 16.7135 70.3984 16.2877C71.2742 15.862 71.9494 15.2526 72.424 14.4583C72.8987 13.6644 73.1361 12.7272 73.1361 11.647C73.1361 10.5668 72.8987 9.6335 72.424 8.84785ZM69.7232 12.9606C69.4937 13.3288 69.1623 13.6111 68.7288 13.8078C68.2948 14.004 67.7751 14.1023 67.1696 14.1023H63.02V9.21599H67.1696C67.7751 9.21599 68.2948 9.3143 68.7288 9.51093C69.1623 9.70713 69.4937 9.98562 69.7232 10.3455C69.9523 10.7059 70.0671 11.1398 70.0671 11.647C70.0671 12.1542 69.9523 12.5925 69.7232 12.9606Z" fill="#2D2D33"/>
<path d="M84.1106 21.223C83.9958 21.223 83.9057 21.1905 83.8407 21.1246C83.7749 21.0597 83.7424 20.9696 83.7424 20.8548V15.2808C83.7424 14.4301 83.5583 13.7012 83.1898 13.0957C82.8216 12.4903 82.2937 12.0277 81.6063 11.7085C80.9186 11.3893 80.0918 11.2295 79.1264 11.2295C78.0129 11.2295 77.08 11.3728 76.3272 11.6591C75.5741 11.9458 74.9928 12.3673 74.5835 12.9238C74.3245 13.2763 74.131 13.6843 74.0032 14.1482C73.8836 14.5817 74.208 15.0109 74.6576 15.0109H76.241C76.5174 15.0109 76.7638 14.8429 76.8699 14.5878C76.9288 14.4457 77.0016 14.3206 77.0882 14.2127C77.2515 14.0083 77.481 13.861 77.7755 13.771C78.0705 13.6813 78.4546 13.6358 78.9298 13.6358C79.4049 13.6358 79.789 13.7012 80.084 13.8325C80.3785 13.9637 80.5994 14.1599 80.7466 14.4215C80.8939 14.6835 80.9679 15.0274 80.9679 15.4527V16.0443L77.6283 16.2384C76.6789 16.3042 75.8768 16.5047 75.2224 16.8399C74.5671 17.176 74.0764 17.626 73.749 18.1904C73.4211 18.7551 73.2578 19.4143 73.2578 20.167C73.2578 20.9198 73.4419 21.6037 73.8105 22.1684C74.1786 22.7332 74.7065 23.1711 75.3939 23.482C76.0817 23.7926 76.8833 23.9485 77.8002 23.9485C78.5859 23.9485 79.2897 23.8216 79.912 23.5678C80.534 23.3144 81.0329 22.9584 81.4097 22.4998C81.4812 22.4127 81.547 22.323 81.6063 22.2308V22.3036C81.6063 22.5656 81.6592 22.7943 81.7657 22.9909C81.8723 23.1875 82.0273 23.3348 82.2322 23.4327C82.4366 23.531 82.6783 23.5803 82.9568 23.5803H84.4869C84.862 23.5803 85.1665 23.2763 85.1665 22.9008V21.9021C85.1665 21.527 84.8624 21.2225 84.4869 21.2225H84.1106V21.223ZM80.9679 18.9149C80.9679 19.4715 80.8488 19.9505 80.6119 20.3515C80.3742 20.7526 80.0472 21.051 79.6297 21.2476C79.2121 21.4438 78.7336 21.5422 78.193 21.5422C77.7673 21.5422 77.4031 21.485 77.1003 21.3702C76.7976 21.2559 76.5685 21.0839 76.413 20.8548C76.2571 20.6257 76.1795 20.3637 76.1795 20.0692C76.1795 19.7907 76.2493 19.5412 76.3883 19.3199C76.5273 19.099 76.7404 18.911 77.0267 18.7551C77.313 18.6001 77.6612 18.5139 78.0705 18.4974L80.9679 18.2527V18.9149Z" fill="#2D2D33"/>
<path d="M96.6947 11.5986C97.0694 11.5986 97.3197 11.9845 97.1668 12.3262L91.0089 26.1345C90.8127 26.5598 90.5953 26.908 90.3584 27.1779C90.1211 27.4481 89.8183 27.6525 89.4498 27.7916C89.0816 27.9306 88.6108 28.0003 88.0378 28.0003H85.5102C85.2248 28.0003 84.9931 27.7686 84.9931 27.4832V25.9149C84.9931 25.6295 85.2248 25.3978 85.5102 25.3978H87.3258C87.6697 25.3978 87.9477 25.332 88.1608 25.2012C88.3735 25.0699 88.5372 24.8655 88.652 24.5875L89.5195 22.6762L84.9009 12.3267C84.7484 11.9845 84.9987 11.5986 85.3729 11.5986H87.5679C87.778 11.5986 87.9668 11.7255 88.0465 11.92L91.0813 19.3378L94.0944 11.9213C94.1736 11.7264 94.3629 11.5986 94.5734 11.5986H96.6943H96.6947Z" fill="#2D2D33"/>
<path d="M99.0145 19.382L108.158 6.91164C108.306 6.70938 108.542 6.58984 108.793 6.58984H109.628C110.06 6.58984 110.411 6.93719 110.416 7.369L110.555 20.2664C110.579 22.2063 111.291 22.6481 112.175 22.6481C112.274 22.6481 112.347 22.7421 112.322 22.8382L112.156 23.4684C112.138 23.5351 112.078 23.5814 112.009 23.5814H105.311C105.208 23.5814 105.135 23.4818 105.166 23.3844L105.366 22.7542C105.386 22.6914 105.444 22.6485 105.51 22.6485H106.013C107.682 22.6485 107.977 22.0348 107.977 20.2175V16.9766H102.477L100.463 19.7757C99.8738 20.6108 99.5057 21.2734 99.5057 21.7645C99.5057 22.3293 100.022 22.6485 101.224 22.6485H101.519C101.618 22.6485 101.69 22.7425 101.665 22.8386L101.499 23.4688C101.482 23.5355 101.422 23.5819 101.353 23.5819H94.968C94.8671 23.5819 94.7944 23.4853 94.8225 23.3883L95.0057 22.7559C95.0239 22.6931 95.0802 22.6494 95.1456 22.6468C96.386 22.6043 97.2249 21.8169 99.0145 19.3829V19.382ZM108.026 9.266L103.508 15.5274H108.001L108.026 9.266H108.026Z" fill="#2D2D33"/>
<path d="M135.232 22.5734C135.232 22.0334 135.477 21.1983 135.846 20.3391L136.631 18.4728H136.484C134.741 21.5912 132.506 23.8009 130.223 23.8009C129.339 23.8009 128.16 23.3097 128.16 21.4192C128.16 17.6872 132.973 11.745 136.582 11.745C137.712 11.745 138.252 12.1131 138.546 12.5059L140.039 11.1516C140.106 11.091 140.193 11.0576 140.283 11.0576H140.416C140.666 11.0576 140.841 11.3054 140.758 11.5414L137.712 20.1671C137.565 20.5599 137.466 20.9285 137.466 21.1494C137.466 21.346 137.565 21.4933 137.834 21.4933C138.536 21.4933 139.55 20.6461 140.622 18.8665C140.715 18.7119 140.908 18.6495 141.074 18.7201C141.263 18.8002 141.349 19.0224 141.261 19.2087C139.753 22.3876 138.053 23.9 136.582 23.9C135.625 23.9 135.232 23.2863 135.232 22.5743V22.5734ZM137.049 14.7407C137.049 13.7342 136.509 13.3656 135.747 13.3656C133.783 13.3656 130.665 16.9751 130.665 19.9462C130.665 20.9528 131.279 21.2967 131.966 21.2967C134.446 21.2967 137.049 16.9751 137.049 14.7407Z" fill="#2D2D33"/>
<path d="M141.715 21.3948C141.715 20.6277 142.013 20.0682 142.439 19.7065C142.654 19.5246 142.983 19.6511 143.03 19.9278C143.292 21.4918 144.207 22.3277 145.202 22.3277C146.086 22.3277 146.602 21.7876 146.602 21.0019C146.602 20.5108 146.454 20.2163 146.012 19.4059L144.981 17.5397C144.588 16.8277 144.342 16.091 144.342 15.33C144.342 13.4148 145.791 11.5732 148.345 11.5732C149.745 11.5732 150.849 12.3836 150.849 13.7093C150.849 14.5638 150.428 15.1368 149.946 15.3976C149.729 15.5149 149.464 15.3789 149.421 15.1364C149.198 13.8878 148.469 13.0467 147.559 13.0467C146.822 13.0467 146.282 13.4889 146.282 14.2745C146.282 14.7657 146.454 15.1095 146.994 16.0667L147.559 17.0732C148.198 18.2275 148.541 19.111 148.541 20.0197C148.541 21.9838 147.166 23.9237 144.711 23.9237C143.041 23.9237 141.715 22.7941 141.715 21.3948H141.715Z" fill="#2D2D33"/>
</g>
<defs>
<clipPath id="clip0_1_202">
<rect width="99.1075" height="24" fill="white" transform="translate(60 4)"/>
</clipPath>
</defs>
</svg>
